<svg xmlns="http://www.w3.org/2000/svg" width="28.421" height="28.421" viewBox="0 0 28.421 28.421"><path d="M733.97,48.735h9.322a9.574,9.574,0,0,1,9.549,9.549v9.322a9.574,9.574,0,0,1-9.549,9.55H733.97a9.574,9.574,0,0,1-9.55-9.55V58.284a9.574,9.574,0,0,1,9.55-9.549Zm9.322,2.5H733.97a7.072,7.072,0,0,0-7.048,7.048v9.322a7.072,7.072,0,0,0,7.048,7.048h9.322a7.072,7.072,0,0,0,7.048-7.048V58.284a7.072,7.072,0,0,0-7.048-7.048Z" transform="translate(-724.42 -48.735)" fill="#be9769"/><g transform="translate(10.648 6.354)"><path d="M756.454,67.251a4.956,4.956,0,0,0-1.286,3.617v.458H753.73v2h1.438v8.608h2.681V73.332h2.31v-2h-2.332v-.545c0-1.307.458-2.419,1.787-2.419a3.119,3.119,0,0,1,1.133.2l.2-2.07a5.2,5.2,0,0,0-1.722-.262A4.055,4.055,0,0,0,756.454,67.251Z" transform="translate(-753.73 -66.227)" fill="#be9769"/></g></svg>