<svg xmlns="http://www.w3.org/2000/svg" width="28.422" height="28.421" viewBox="0 0 28.422 28.421"><path d="M834.523,48.735h9.322a9.574,9.574,0,0,1,9.55,9.549v9.322a9.574,9.574,0,0,1-9.55,9.55h-9.322a9.574,9.574,0,0,1-9.55-9.55V58.284a9.574,9.574,0,0,1,9.55-9.549Zm12.221,5.827a1.62,1.62,0,1,1-1.62,1.62,1.62,1.62,0,0,1,1.62-1.62Zm-7.56,1.506a6.878,6.878,0,1,1-4.863,2.014,6.856,6.856,0,0,1,4.863-2.014Zm3.095,3.783a4.376,4.376,0,1,0,1.282,3.095,4.364,4.364,0,0,0-1.282-3.095Zm1.566-8.615h-9.322a7.072,7.072,0,0,0-7.048,7.048v9.322a7.072,7.072,0,0,0,7.048,7.048h9.322a7.072,7.072,0,0,0,7.048-7.048V58.284a7.072,7.072,0,0,0-7.048-7.048Z" transform="translate(-824.973 -48.735)" fill="#be9769"/></svg>