<svg xmlns="http://www.w3.org/2000/svg" width="629.629" height="137.627" viewBox="0 0 629.629 137.627"><g transform="translate(-104.395 -105.063)"><path d="M291.659,174.133a21.2,21.2,0,0,1-8.132-1.44,15.826,15.826,0,0,1-5.782-3.955,16.29,16.29,0,0,1-3.43-5.919,23.043,23.043,0,0,1-1.134-7.33,20.271,20.271,0,0,1,1.134-6.584,18.179,18.179,0,0,1,3.43-6,17.517,17.517,0,0,1,5.782-4.371,18.458,18.458,0,0,1,8.132-1.688q1.826,0,3.348.082t2.9.277q1.385.2,2.712.5c.886.2,1.807.434,2.766.69a32.745,32.745,0,0,0,.388,3.653q.332,2.155.886,4.369a1.972,1.972,0,0,1-.886.222,2.675,2.675,0,0,1-.8-.112.722.722,0,0,1-.47-.607,9.06,9.06,0,0,0-3.154-5.2,10.651,10.651,0,0,0-6.251-1.548,15.489,15.489,0,0,0-6.058,1.106,12.287,12.287,0,0,0-4.426,3.1,13.1,13.1,0,0,0-2.711,4.786,19.954,19.954,0,0,0-.914,6.223,20.491,20.491,0,0,0,1.163,7.027,17.913,17.913,0,0,0,3.125,5.532,13.913,13.913,0,0,0,4.592,3.6,12.722,12.722,0,0,0,5.616,1.271,14.626,14.626,0,0,0,4.011-.471,7.454,7.454,0,0,0,2.711-1.355,7.816,7.816,0,0,0,1.825-2.185,23.42,23.42,0,0,0,1.412-2.96,1.35,1.35,0,0,1,1.327-.829,2.2,2.2,0,0,1,.582.083,1.748,1.748,0,0,1,.469.193q-.666,1.937-1.328,4.26t-1.107,4.648q-2.711.441-5.532.69t-6.2.25" fill="#ba8a53"/><path d="M319.929,169.486a1.352,1.352,0,0,0,.829,1.328,5.479,5.479,0,0,0,2.268.388h6.031a8.239,8.239,0,0,0,2.767-.417,5.635,5.635,0,0,0,1.99-1.188,7.782,7.782,0,0,0,1.467-1.909,16.006,16.006,0,0,0,1.134-2.573.646.646,0,0,1,.664-.442,1.416,1.416,0,0,1,.581.138c.2.092.415.193.636.3q-.387,1.66-.747,3.513t-.635,4.177c-.038.407-.149.665-.334.776a1.264,1.264,0,0,1-.663.165q-.942,0-2.351-.139t-2.462-.137H317.273q-1.273,0-3.208.082t-3.707.194a4.764,4.764,0,0,1-.112-.886c0-.516.185-.809.555-.885a10.614,10.614,0,0,0,3.1-.858,1.565,1.565,0,0,0,.83-1.466V141.436a1.7,1.7,0,0,0-.774-1.576,9.107,9.107,0,0,0-2.987-.8.577.577,0,0,1-.415-.3,1.177,1.177,0,0,1-.14-.582,5.006,5.006,0,0,1,.111-.94q1.881.111,3.707.193t3.1.084q1.879,0,3.984-.084t3.761-.193a4.732,4.732,0,0,1,.11.885q0,.942-.608.995a12.255,12.255,0,0,0-3.513.8,1.92,1.92,0,0,0-1.134,1.908Z" fill="#ba8a53"/><path d="M362.306,160.3H349.97l-3.542,8.907a3.045,3.045,0,0,0-.275,1.108q0,1.161,3.374,1.658a.667.667,0,0,1,.525.305,1.174,1.174,0,0,1,.139.582,4.9,4.9,0,0,1-.11.885q-1.5-.112-3.154-.193t-3.265-.084c-.738,0-1.492.019-2.268.056s-1.587.109-2.435.221a3.672,3.672,0,0,1-.11-.885,1.456,1.456,0,0,1,.139-.664.687.687,0,0,1,.581-.333,9.768,9.768,0,0,0,2.572-.69,2.52,2.52,0,0,0,1.244-1.3l13.333-32.088q.389-.94,1.053-.94a3.08,3.08,0,0,1,.663.11l13.389,33.085a2.436,2.436,0,0,0,1.493,1.215,10.834,10.834,0,0,0,2.268.609,1.309,1.309,0,0,1,.525.305.965.965,0,0,1,.194.692,4.9,4.9,0,0,1-.11.885q-1.77-.112-3.486-.193t-3.208-.084q-1.551,0-3.54.084c-1.33.054-2.527.118-3.6.193a4.809,4.809,0,0,1-.11-.885.965.965,0,0,1,.194-.692.54.54,0,0,1,.36-.2,12.581,12.581,0,0,0,2.323-.635c.589-.24.886-.6.886-1.078a2.194,2.194,0,0,0-.222-.832Zm-.885-2.268-5.145-13.554-5.366,13.554Zm-.221-31.644a3.891,3.891,0,0,1,1.937,1.355,3,3,0,0,1,.663,1.742,1.511,1.511,0,0,1-1.216,1.605q-1.274.331-2.352.664t-2.1.692q-1.023.36-2.1.773t-2.407.969a1.553,1.553,0,0,1-.553-1.05.916.916,0,0,1,.442-.72Z" fill="#ba8a53"/><path d="M409.165,160.026a21.274,21.274,0,0,1-.719,5.726,10.549,10.549,0,0,1-6.86,7.359,20.2,20.2,0,0,1-6.917,1.021,20.741,20.741,0,0,1-7.688-1.19,10.96,10.96,0,0,1-4.509-3.124,10.254,10.254,0,0,1-2.1-4.453,25.007,25.007,0,0,1-.525-5.118v-18.81a1.766,1.766,0,0,0-.776-1.6,7.832,7.832,0,0,0-2.931-.775c-.369-.035-.554-.35-.554-.94a4.707,4.707,0,0,1,.112-.886q1.66.112,3.4.194t3.348.083q1.436,0,3.373-.083c1.29-.054,2.491-.119,3.6-.194a4.848,4.848,0,0,1,.11.886c0,.59-.183.9-.552.94a9.282,9.282,0,0,0-3.014.775,1.691,1.691,0,0,0-.913,1.6V159.03q0,5.754,2.295,8.824t7.773,3.07a17.385,17.385,0,0,0,5.256-.692,7.848,7.848,0,0,0,5.532-5.864,21.68,21.68,0,0,0,.609-5.5V141.437a1.731,1.731,0,0,0-.83-1.6,8.464,8.464,0,0,0-2.987-.775c-.407-.035-.609-.35-.609-.94a4.76,4.76,0,0,1,.11-.886q1.6.112,3.126.194t2.628.083c.886,0,1.778-.027,2.683-.083s1.8-.119,2.685-.194a5.015,5.015,0,0,1,.109.886,1.217,1.217,0,0,1-.165.581.644.644,0,0,1-.444.359,6.932,6.932,0,0,0-2.848.748,1.812,1.812,0,0,0-.8,1.632Z" fill="#ba8a53"/><path d="M454.751,155.489a19.271,19.271,0,0,1-1.134,6.472,17.241,17.241,0,0,1-3.429,5.783,17,17,0,0,1-5.808,4.148,19.925,19.925,0,0,1-8.217,1.576H424.822q-1.438,0-3.264.084t-3.54.194a4.679,4.679,0,0,1-.112-.885c0-.517.2-.81.608-.886a15.086,15.086,0,0,0,2.933-.94,1.5,1.5,0,0,0,.886-1.438V141.436a1.6,1.6,0,0,0-.831-1.548,11.349,11.349,0,0,0-2.988-.831.593.593,0,0,1-.468-.331,1.324,1.324,0,0,1-.14-.609,4.679,4.679,0,0,1,.112-.885c.773.074,1.447.12,2.018.139s1.116.046,1.633.083,1.023.055,1.521.055h12.918a21.42,21.42,0,0,1,8.16,1.438,16.636,16.636,0,0,1,5.836,3.873,15.824,15.824,0,0,1,3.486,5.7,20.625,20.625,0,0,1,1.161,6.971m-5.808,1.05q0-8.519-4.232-12.639t-12.365-4.123h-4.813v29.432a1.559,1.559,0,0,0,.277.94,1.8,1.8,0,0,0,.94.609,8.5,8.5,0,0,0,1.826.332q1.161.111,2.931.112a21.966,21.966,0,0,0,7.194-1.025,11.878,11.878,0,0,0,4.757-2.931,11.427,11.427,0,0,0,2.656-4.621,20.791,20.791,0,0,0,.829-6.086" fill="#ba8a53"/><path d="M469.191,169.6a1.566,1.566,0,0,0,.774,1.521,12.217,12.217,0,0,0,2.876.857c.369.076.555.369.555.886a4.836,4.836,0,0,1-.111.885q-1.716-.111-3.431-.194t-3.264-.084q-1.492,0-3.292.084t-3.4.194a4.836,4.836,0,0,1-.111-.885c0-.517.184-.81.555-.886a10.25,10.25,0,0,0,2.875-.829,1.632,1.632,0,0,0,.775-1.549V141.436a1.7,1.7,0,0,0-.775-1.576,8.791,8.791,0,0,0-2.875-.8.53.53,0,0,1-.444-.331,1.645,1.645,0,0,1-.111-.609,4.836,4.836,0,0,1,.111-.885q1.66.111,3.458.193t3.236.084q1.385,0,3.181-.084t3.514-.193a4.836,4.836,0,0,1,.111.885c0,.553-.186.868-.555.94a8.8,8.8,0,0,0-2.876.8,1.7,1.7,0,0,0-.774,1.576Z" fill="#ba8a53"/><path d="M499.727,160.3H487.391l-3.542,8.906a3.041,3.041,0,0,0-.275,1.109q0,1.159,3.374,1.657a.667.667,0,0,1,.526.305,1.184,1.184,0,0,1,.138.582,4.972,4.972,0,0,1-.109.885q-1.5-.112-3.156-.194t-3.263-.083q-1.107,0-2.268.056t-2.435.221a3.629,3.629,0,0,1-.11-.885,1.485,1.485,0,0,1,.138-.666.692.692,0,0,1,.582-.331,9.752,9.752,0,0,0,2.572-.69,2.527,2.527,0,0,0,1.244-1.3l13.333-32.088q.388-.94,1.052-.94a3.078,3.078,0,0,1,.664.11l13.388,33.085a2.442,2.442,0,0,0,1.494,1.215,10.8,10.8,0,0,0,2.268.609,1.319,1.319,0,0,1,.525.306.961.961,0,0,1,.194.691,4.9,4.9,0,0,1-.11.885q-1.77-.112-3.486-.194c-1.142-.056-2.214-.083-3.208-.083q-1.551,0-3.541.083t-3.6.194a4.809,4.809,0,0,1-.11-.885.961.961,0,0,1,.194-.691.534.534,0,0,1,.359-.2,12.56,12.56,0,0,0,2.323-.635c.59-.24.887-.6.887-1.078a2.176,2.176,0,0,0-.223-.832Zm-.884-2.268L493.7,144.479l-5.367,13.555Z" fill="#ba8a53"/><path d="M557.982,173.192q-2.488.444-5.09.692t-6.085.248a21.729,21.729,0,0,1-8.269-1.438,16.236,16.236,0,0,1-5.837-3.928,15.862,15.862,0,0,1-3.459-5.891,23.235,23.235,0,0,1-1.134-7.387,20.425,20.425,0,0,1,1.134-6.638,17.535,17.535,0,0,1,9.212-10.318,18.467,18.467,0,0,1,8.133-1.687q1.658,0,3.181.083c1.012.055,2.02.157,3.016.3s2,.325,3.015.527,2.108.451,3.29.747c.074,1.292.213,2.626.416,4.011a41.435,41.435,0,0,0,.8,4.066.829.829,0,0,1-.443.165,3.442,3.442,0,0,1-.552.056,1.02,1.02,0,0,1-1.107-.719,8.856,8.856,0,0,0-3.374-5.311,12.137,12.137,0,0,0-6.8-1.6,15.338,15.338,0,0,0-6.2,1.161,12.133,12.133,0,0,0-4.4,3.181,13.516,13.516,0,0,0-2.629,4.814,19.955,19.955,0,0,0-.886,6.058,20.946,20.946,0,0,0,1.136,7.025,17.459,17.459,0,0,0,3.1,5.533,13.753,13.753,0,0,0,4.647,3.6,13.461,13.461,0,0,0,5.836,1.271,23.7,23.7,0,0,0,3.238-.221,18.155,18.155,0,0,0,2.74-.553v-8.463a2.294,2.294,0,0,0-.886-2.074,7.519,7.519,0,0,0-2.988-.859.726.726,0,0,1-.609-.387,1.494,1.494,0,0,1-.165-.664,3.58,3.58,0,0,1,.109-.885q1.605.112,3.542.194t3.376.082q1.434,0,3.29-.082c1.235-.055,2.312-.119,3.237-.194a4.89,4.89,0,0,1,.109.885,1.072,1.072,0,0,1-.193.747.9.9,0,0,1-.469.248,5.365,5.365,0,0,0-2.462.748,1.913,1.913,0,0,0-.69,1.632v9.846a1.252,1.252,0,0,1-.279.832,2.905,2.905,0,0,1-1.55.552" fill="#ba8a53"/><path d="M587.636,160.3H575.3l-3.541,8.906a3.02,3.02,0,0,0-.275,1.109q0,1.159,3.372,1.657a.668.668,0,0,1,.528.305,1.2,1.2,0,0,1,.138.582,4.826,4.826,0,0,1-.111.885q-1.5-.112-3.154-.194t-3.263-.083c-.74,0-1.494.019-2.268.056s-1.588.11-2.435.221a3.634,3.634,0,0,1-.112-.885,1.484,1.484,0,0,1,.139-.666.693.693,0,0,1,.583-.331,9.751,9.751,0,0,0,2.572-.69,2.52,2.52,0,0,0,1.242-1.3l13.335-32.088q.387-.94,1.052-.94a3.055,3.055,0,0,1,.662.11l13.39,33.085a2.438,2.438,0,0,0,1.492,1.215,10.851,10.851,0,0,0,2.27.609,1.319,1.319,0,0,1,.525.306.961.961,0,0,1,.194.691,4.825,4.825,0,0,1-.111.885c-1.179-.075-2.343-.14-3.485-.194s-2.215-.083-3.208-.083q-1.551,0-3.542.083c-1.328.054-2.529.119-3.6.194a4.826,4.826,0,0,1-.111-.885.956.956,0,0,1,.194-.691.536.536,0,0,1,.36-.2,12.583,12.583,0,0,0,2.323-.635c.588-.24.885-.6.885-1.078a2.153,2.153,0,0,0-.222-.832Zm-.884-2.268-5.145-13.555-5.368,13.555Z" fill="#ba8a53"/><path d="M614.136,169.486a1.352,1.352,0,0,0,.829,1.328,5.478,5.478,0,0,0,2.268.388h6.032a8.247,8.247,0,0,0,2.767-.417,5.612,5.612,0,0,0,1.989-1.188,7.785,7.785,0,0,0,1.468-1.909,16.09,16.09,0,0,0,1.134-2.573.645.645,0,0,1,.663-.442,1.41,1.41,0,0,1,.582.138q.3.138.636.3-.389,1.66-.747,3.513t-.636,4.177c-.037.407-.148.665-.334.776a1.26,1.26,0,0,1-.662.165q-.942,0-2.352-.139t-2.462-.137h-13.83q-1.275,0-3.208.082t-3.707.194a4.834,4.834,0,0,1-.111-.886c0-.516.183-.809.553-.885a10.633,10.633,0,0,0,3.1-.858,1.564,1.564,0,0,0,.829-1.466V141.436a1.7,1.7,0,0,0-.773-1.576,9.106,9.106,0,0,0-2.988-.8.571.571,0,0,1-.414-.3,1.188,1.188,0,0,1-.141-.582,5.006,5.006,0,0,1,.111-.94c1.253.074,2.491.139,3.707.193s2.249.084,3.1.084q1.879,0,3.983-.084t3.761-.193a4.664,4.664,0,0,1,.111.885q0,.942-.609.995a12.245,12.245,0,0,0-3.513.8,1.921,1.921,0,0,0-1.134,1.908Z" fill="#ba8a53"/><path d="M658.728,141.935a3.332,3.332,0,0,0,.22-1.106,1.242,1.242,0,0,0-.774-1.163,8.378,8.378,0,0,0-2.49-.609c-.442-.035-.662-.35-.662-.94a2.02,2.02,0,0,1,.056-.5,1.571,1.571,0,0,1,.055-.386c.071,0,.312.019.718.055s.892.075,1.465.11,1.189.065,1.854.084,1.29.027,1.881.027c1.216,0,2.332-.035,3.347-.111s1.613-.127,1.8-.165a1.639,1.639,0,0,0,.055.386l.026.305.03.25c0,.59-.2.921-.609,1a6.669,6.669,0,0,0-2.6.552,2.889,2.889,0,0,0-1.275,1.5l-13.663,32.861-.249.028-.249.027c-.408,0-.739-.313-1-.94l-13-32.253a2.276,2.276,0,0,0-1.107-1.163,10.116,10.116,0,0,0-2.766-.663c-.406-.035-.609-.369-.609-1a3.583,3.583,0,0,1,.111-.885q1.66.111,3.595.194t3.375.082q1.383,0,3.376-.082t3.706-.194a4.668,4.668,0,0,1,.111.885q0,.831-.665.94-3.267.333-3.263,1.772a2.225,2.225,0,0,0,.111.719l9.4,24.065Z" fill="#ba8a53"/><path d="M683.4,160.3H671.064l-3.541,8.906a3.02,3.02,0,0,0-.275,1.109q0,1.159,3.372,1.657a.668.668,0,0,1,.528.305,1.2,1.2,0,0,1,.138.582,4.826,4.826,0,0,1-.111.885q-1.5-.112-3.154-.194t-3.263-.083c-.74,0-1.494.019-2.269.056s-1.587.11-2.434.221a3.634,3.634,0,0,1-.112-.885,1.472,1.472,0,0,1,.139-.666.694.694,0,0,1,.583-.331,9.751,9.751,0,0,0,2.572-.69,2.52,2.52,0,0,0,1.242-1.3l13.335-32.088c.257-.627.609-.94,1.052-.94a3.055,3.055,0,0,1,.662.11l13.39,33.085a2.438,2.438,0,0,0,1.492,1.215,10.851,10.851,0,0,0,2.27.609,1.319,1.319,0,0,1,.525.306.961.961,0,0,1,.194.691,4.825,4.825,0,0,1-.111.885c-1.179-.075-2.343-.14-3.485-.194s-2.215-.083-3.208-.083q-1.551,0-3.542.083c-1.328.054-2.529.119-3.6.194a4.825,4.825,0,0,1-.111-.885.956.956,0,0,1,.194-.691.536.536,0,0,1,.36-.2,12.583,12.583,0,0,0,2.323-.635c.588-.24.885-.6.885-1.078a2.152,2.152,0,0,0-.222-.832Zm-11.9-27.662a14,14,0,0,1,2.628-2.849,3.94,3.94,0,0,1,4.122-.968,12.857,12.857,0,0,1,1.826.774,6.532,6.532,0,0,0,1.356.527,5.171,5.171,0,0,0,1.19.137,5.341,5.341,0,0,0,2.1-.358,5.213,5.213,0,0,0,1.6-1.136,1.922,1.922,0,0,1,.663.527.925.925,0,0,1,.167.525l-.056.3-.111.248a13.776,13.776,0,0,1-2.517,2.766,4.231,4.231,0,0,1-2.684,1.051,6.606,6.606,0,0,1-1.74-.249,9.22,9.22,0,0,1-1.689-.635,12.676,12.676,0,0,0-1.576-.692,3.307,3.307,0,0,0-1.026-.194,4.062,4.062,0,0,0-1.8.415,6.123,6.123,0,0,0-1.743,1.355c-.59-.294-.884-.646-.884-1.051a1.015,1.015,0,0,1,.164-.5m11.011,25.394-5.145-13.555L672,158.034Z" fill="#ba8a53"/><path d="M697.674,155.489a18.8,18.8,0,0,1,1.383-7.192,19.327,19.327,0,0,1,3.763-5.92,18.176,18.176,0,0,1,5.534-4.039,15.315,15.315,0,0,1,6.636-1.493,21.488,21.488,0,0,1,8.41,1.521,16.392,16.392,0,0,1,9.46,10.041,21.6,21.6,0,0,1,1.164,7.082,20.2,20.2,0,0,1-1.439,7.827,16.8,16.8,0,0,1-9.877,9.546,20.62,20.62,0,0,1-7.274,1.271,18.927,18.927,0,0,1-7.191-1.327,16,16,0,0,1-5.617-3.79,17.242,17.242,0,0,1-3.651-5.893,21.386,21.386,0,0,1-1.3-7.634m19.033,15.989a11.2,11.2,0,0,0,4.756-1,10.992,10.992,0,0,0,3.709-2.766,12.77,12.77,0,0,0,2.406-4.205,15.85,15.85,0,0,0,.858-5.312,31.119,31.119,0,0,0-.832-7.384,18.3,18.3,0,0,0-2.516-5.922,12.329,12.329,0,0,0-4.261-3.955,12.1,12.1,0,0,0-6-1.438,11.228,11.228,0,0,0-4.342.859,10.7,10.7,0,0,0-3.653,2.489,12.121,12.121,0,0,0-2.518,4.011,14.8,14.8,0,0,0-.94,5.476,31.076,31.076,0,0,0,.884,7.607,19.941,19.941,0,0,0,2.574,6.086,12.358,12.358,0,0,0,4.178,4.011,11.172,11.172,0,0,0,5.7,1.439" fill="#ba8a53"/><path d="M301.149,195.954l.178-.316a.6.6,0,0,1,.336-.237,3.987,3.987,0,0,1,.632-.138,7.838,7.838,0,0,1,1.107-.06c.209,0,.487-.007.829-.019s.712-.027,1.107-.041.8-.031,1.206-.06.784-.051,1.126-.077a3.439,3.439,0,0,1,.078.632c0,.421-.131.646-.395.672a4.766,4.766,0,0,0-1.9.533,1.04,1.04,0,0,0-.475.89c0,.025.021.375.06,1.047s.1,1.791.178,3.359.177,3.655.3,6.263.257,5.847.416,9.721a1.39,1.39,0,0,0,.512,1.106,4.919,4.919,0,0,0,1.937.594.417.417,0,0,1,.3.217.838.838,0,0,1,.1.415,3.366,3.366,0,0,1-.08.631q-1.383-.079-2.508-.137t-2.075-.06c-.265,0-.593.007-.988.019l-1.245.041c-.434.014-.864.031-1.283.058s-.791.053-1.108.079a3.332,3.332,0,0,1-.078-.631c0-.422.13-.632.395-.632a8.536,8.536,0,0,0,2.154-.633,1.121,1.121,0,0,0,.573-1.067c0-.08-.021-.567-.059-1.462s-.093-1.988-.16-3.28-.131-2.687-.2-4.189-.132-2.917-.2-4.248-.124-2.476-.177-3.438-.079-1.547-.079-1.758l-8.654,20.9a2.666,2.666,0,0,1-.3.534.454.454,0,0,1-.375.177.952.952,0,0,1-.357-.04L282.3,199.115q-.039.395-.1,1.917t-.157,3.616q-.1,2.094-.217,4.426t-.217,4.307q-.1,1.976-.158,3.32c-.04.895-.059,1.37-.059,1.422q0,1.226,2.685,1.7c.264.026.4.238.4.632a3.45,3.45,0,0,1-.08.631q-1.066-.079-2.1-.137t-1.816-.06c-.423,0-.989.019-1.7.06s-1.384.084-2.016.137a3.254,3.254,0,0,1-.078-.631c0-.369.13-.579.394-.632a5.5,5.5,0,0,0,1.719-.574,1.4,1.4,0,0,0,.731-1.126q0-.355.079-2t.179-3.892q.1-2.253.217-4.78t.217-4.684q.1-2.152.157-3.557c.041-.935.06-1.416.06-1.442a1.006,1.006,0,0,0-.494-.929,6.108,6.108,0,0,0-1.877-.533c-.263-.026-.4-.251-.4-.672a3.366,3.366,0,0,1,.079-.632c.343.026.731.053,1.165.077s.871.048,1.3.06l1.244.041c.4.012.712.019.948.019a7.845,7.845,0,0,1,1.108.06,4.108,4.108,0,0,1,.633.138.6.6,0,0,1,.335.237l.179.316,8.456,19.718Z" fill="#ba8a53"/><path d="M319.328,196.823V206.94h6.163a1.151,1.151,0,0,0,1.126-.77,8.535,8.535,0,0,0,.535-1.878.641.641,0,0,1,.711-.514,1.908,1.908,0,0,1,.316.039,2.963,2.963,0,0,1,.316.08c-.053.58-.1,1.239-.139,1.975s-.059,1.383-.059,1.938q0,.671.04,1.64t.158,2.193a2.427,2.427,0,0,1-.593.077.666.666,0,0,1-.75-.512,8.535,8.535,0,0,0-.535-1.878,1.153,1.153,0,0,0-1.126-.77h-6.163v9.326q0,.829,1.066,1.106a15.614,15.614,0,0,0,3.517.277h2.173a5.394,5.394,0,0,0,2-.336,5.082,5.082,0,0,0,1.5-.909,6.56,6.56,0,0,0,1.165-1.363,17.674,17.674,0,0,0,.986-1.738q.12-.277.594-.277a.879.879,0,0,1,.415.118c.144.079.284.159.414.236a9.648,9.648,0,0,0-.612,1.8q-.258,1.047-.494,1.994a14.1,14.1,0,0,1-.493,1.621c-.171.448-.39.672-.653.672-.21,0-.514-.014-.909-.041s-.823-.046-1.284-.058-.929-.034-1.4-.058-.883-.041-1.225-.041h-8.653q-1.148,0-2.451.06t-2.489.138a3.392,3.392,0,0,1-.08-.632c0-.369.131-.579.4-.632a9.189,9.189,0,0,0,2.153-.593,1.129,1.129,0,0,0,.654-1.107V198.009a1.114,1.114,0,0,0-.574-1.087,9.551,9.551,0,0,0-2.233-.613c-.265-.051-.4-.277-.4-.671a2.418,2.418,0,0,1,.02-.335l.06-.3c1.133.078,2.081.133,2.846.157s1.447.041,2.054.041h7.786q1.776,0,3.08-.12c.871-.078,1.449-.118,1.739-.118q.513,0,.692.651a12.088,12.088,0,0,1,.3,1.563c.078.605.171,1.251.277,1.934a4.679,4.679,0,0,0,.591,1.741,1.157,1.157,0,0,1-.71.236.654.654,0,0,1-.672-.356,19.677,19.677,0,0,0-.909-1.758,4.608,4.608,0,0,0-1.008-1.205,3.785,3.785,0,0,0-1.383-.711,7.194,7.194,0,0,0-1.994-.238Z" fill="#ba8a53"/><path d="M362.638,208.046a13.823,13.823,0,0,1-.811,4.623,12.308,12.308,0,0,1-2.451,4.13,12.106,12.106,0,0,1-4.149,2.964,14.2,14.2,0,0,1-5.868,1.126h-8.1q-1.027,0-2.332.06t-2.528.138a3.392,3.392,0,0,1-.08-.632c0-.369.145-.579.435-.632a10.713,10.713,0,0,0,2.093-.673,1.067,1.067,0,0,0,.634-1.027V198.009a1.147,1.147,0,0,0-.593-1.107,8.187,8.187,0,0,0-2.134-.593.424.424,0,0,1-.336-.237.968.968,0,0,1-.1-.434,3.392,3.392,0,0,1,.08-.632q.829.08,1.442.1c.408.014.8.035,1.167.059s.731.041,1.085.041h9.228a15.309,15.309,0,0,1,5.829,1.027A11.922,11.922,0,0,1,359.317,199a11.318,11.318,0,0,1,2.489,4.069,14.738,14.738,0,0,1,.832,4.98m-4.151.751q0-6.085-3.024-9.03t-8.83-2.943H343.2v21.023a1.116,1.116,0,0,0,.2.671,1.279,1.279,0,0,0,.672.434,6,6,0,0,0,1.3.237q.831.08,2.1.08a15.723,15.723,0,0,0,5.137-.731,8.489,8.489,0,0,0,3.4-2.094,8.128,8.128,0,0,0,1.9-3.3,14.824,14.824,0,0,0,.593-4.347" fill="#ba8a53"/><path d="M372.95,218.123a1.121,1.121,0,0,0,.554,1.087,8.783,8.783,0,0,0,2.055.613c.263.053.4.263.4.632a3.392,3.392,0,0,1-.08.632q-1.225-.08-2.45-.138t-2.332-.06q-1.068,0-2.352.06t-2.43.138a3.447,3.447,0,0,1-.078-.632c0-.369.131-.579.4-.632a7.247,7.247,0,0,0,2.054-.594,1.163,1.163,0,0,0,.553-1.106V198.009a1.212,1.212,0,0,0-.553-1.126,6.29,6.29,0,0,0-2.054-.574.377.377,0,0,1-.318-.237,1.172,1.172,0,0,1-.078-.434,3.447,3.447,0,0,1,.078-.632q1.185.08,2.471.138t2.311.06q.987,0,2.274-.06t2.508-.138a3.392,3.392,0,0,1,.08.632c0,.4-.133.62-.4.671a6.289,6.289,0,0,0-2.055.574,1.212,1.212,0,0,0-.554,1.126Z" fill="#ba8a53"/><path d="M392.787,221.363a15.141,15.141,0,0,1-5.808-1.028,11.344,11.344,0,0,1-4.131-2.825,11.642,11.642,0,0,1-2.449-4.227,16.462,16.462,0,0,1-.81-5.236,14.475,14.475,0,0,1,.81-4.7,13,13,0,0,1,2.449-4.288,12.548,12.548,0,0,1,4.131-3.121,13.16,13.16,0,0,1,5.808-1.206q1.305,0,2.392.059t2.074.2q.987.14,1.936.355t1.976.495a23.285,23.285,0,0,0,.277,2.608q.236,1.54.632,3.121a1.413,1.413,0,0,1-.632.158,1.933,1.933,0,0,1-.574-.079.518.518,0,0,1-.335-.434,6.472,6.472,0,0,0-2.253-3.715,7.606,7.606,0,0,0-4.466-1.106,11.053,11.053,0,0,0-4.327.791,8.8,8.8,0,0,0-3.161,2.212,9.355,9.355,0,0,0-1.935,3.417,14.241,14.241,0,0,0-.653,4.447,14.645,14.645,0,0,0,.829,5.019,12.814,12.814,0,0,0,2.234,3.951,9.9,9.9,0,0,0,3.279,2.568,9.057,9.057,0,0,0,4.011.909,10.486,10.486,0,0,0,2.865-.335,5.362,5.362,0,0,0,1.937-.968,5.591,5.591,0,0,0,1.3-1.562,16.541,16.541,0,0,0,1.007-2.115.968.968,0,0,1,.949-.591,1.564,1.564,0,0,1,.415.06,1.187,1.187,0,0,1,.336.137q-.474,1.383-.948,3.044t-.791,3.319q-1.937.315-3.951.494t-4.427.177" fill="#ba8a53"/><path d="M412.781,218.123a1.121,1.121,0,0,0,.554,1.087,8.784,8.784,0,0,0,2.055.613c.263.053.4.263.4.632a3.392,3.392,0,0,1-.08.632q-1.225-.08-2.45-.138t-2.332-.06q-1.068,0-2.352.06t-2.429.138a3.376,3.376,0,0,1-.079-.632c0-.369.131-.579.4-.632a7.247,7.247,0,0,0,2.054-.594,1.163,1.163,0,0,0,.553-1.106V198.009a1.212,1.212,0,0,0-.553-1.126,6.29,6.29,0,0,0-2.054-.574.375.375,0,0,1-.317-.237,1.152,1.152,0,0,1-.079-.434,3.376,3.376,0,0,1,.079-.632c.789.053,1.614.1,2.47.138s1.626.06,2.311.06q.987,0,2.274-.06t2.508-.138a3.392,3.392,0,0,1,.08.632c0,.4-.133.62-.4.671a6.289,6.289,0,0,0-2.055.574,1.212,1.212,0,0,0-.554,1.126Z" fill="#ba8a53"/><path d="M439.891,214.606V198.088a1.289,1.289,0,0,0-.633-1.225,6.362,6.362,0,0,0-2.133-.553c-.29-.026-.435-.251-.435-.672a3.366,3.366,0,0,1,.079-.632q.988.08,2.015.137t1.936.06q.869,0,1.818-.06t1.857-.137a3.383,3.383,0,0,1,.08.632c0,.421-.133.646-.4.672a4.5,4.5,0,0,0-1.838.553,1.315,1.315,0,0,0-.494,1.146v23.275a.91.91,0,0,1-.277.06c-.132.013-.237.019-.316.019a1,1,0,0,1-.512-.137,2.066,2.066,0,0,1-.554-.574l-16.044-21.141v18.612a1.162,1.162,0,0,0,.553,1.106,7.4,7.4,0,0,0,2.134.594c.263.053.4.263.4.632a3.525,3.525,0,0,1-.079.631q-.988-.079-2-.137t-1.877-.06q-.792,0-1.857.06c-.712.039-1.356.084-1.936.137a3.283,3.283,0,0,1-.08-.631c0-.369.145-.579.436-.632a6.163,6.163,0,0,0,1.917-.594,1.211,1.211,0,0,0,.493-1.106V197.811a1.134,1.134,0,0,0-.454-.968,4.588,4.588,0,0,0-1.878-.533c-.29-.052-.434-.277-.434-.672a1.532,1.532,0,0,1,.038-.355l.04-.277q.791.08,1.5.118c.42.026.869.046,1.343.06s.895.019,1.265.019a9.1,9.1,0,0,1,1.521.08,1,1,0,0,1,.612.395Z" fill="#ba8a53"/><path d="M460.913,211.483H452.1l-2.53,6.364a2.155,2.155,0,0,0-.2.79q0,.83,2.41,1.186a.476.476,0,0,1,.376.217.846.846,0,0,1,.1.415,3.525,3.525,0,0,1-.079.631q-1.066-.079-2.253-.137t-2.332-.06q-.789,0-1.62.04t-1.737.157a2.574,2.574,0,0,1-.08-.631,1.071,1.071,0,0,1,.1-.475.493.493,0,0,1,.415-.237,6.965,6.965,0,0,0,1.838-.494,1.8,1.8,0,0,0,.888-.929l9.524-22.919c.183-.448.436-.672.75-.672a2.144,2.144,0,0,1,.475.079l9.563,23.63a1.742,1.742,0,0,0,1.068.871,7.809,7.809,0,0,0,1.62.434.96.96,0,0,1,.374.217.689.689,0,0,1,.14.495,3.363,3.363,0,0,1-.08.631q-1.266-.079-2.49-.137t-2.292-.06q-1.107,0-2.528.06c-.95.039-1.8.084-2.57.137a3.332,3.332,0,0,1-.078-.631.7.7,0,0,1,.138-.495l.258-.137a9.26,9.26,0,0,0,1.659-.454c.422-.173.632-.429.632-.772A1.535,1.535,0,0,0,463.4,218Zm-.632-1.619-3.675-9.682-3.833,9.682Z" fill="#ba8a53"/><path d="M507.543,208.046a13.772,13.772,0,0,1-.811,4.623,12.275,12.275,0,0,1-2.451,4.13,12.082,12.082,0,0,1-4.148,2.964,14.2,14.2,0,0,1-5.868,1.126h-8.1q-1.027,0-2.331.06t-2.53.138a3.36,3.36,0,0,1-.078-.632c0-.369.143-.579.434-.632a10.751,10.751,0,0,0,2.094-.673,1.067,1.067,0,0,0,.634-1.027V198.009a1.146,1.146,0,0,0-.6-1.107,8.152,8.152,0,0,0-2.133-.593.422.422,0,0,1-.335-.237.942.942,0,0,1-.1-.434,3.36,3.36,0,0,1,.078-.632c.555.053,1.034.085,1.444.1s.8.035,1.165.059.731.041,1.086.041h9.229a15.3,15.3,0,0,1,5.828,1.027A11.913,11.913,0,0,1,504.223,199a11.306,11.306,0,0,1,2.49,4.069,14.738,14.738,0,0,1,.83,4.98m-4.149.751q0-6.085-3.024-9.03t-8.832-2.943H488.1v21.023a1.117,1.117,0,0,0,.2.671,1.268,1.268,0,0,0,.671.434,5.978,5.978,0,0,0,1.3.237q.83.08,2.1.08a15.731,15.731,0,0,0,5.137-.731,8.481,8.481,0,0,0,3.4-2.094,8.143,8.143,0,0,0,1.9-3.3,14.823,14.823,0,0,0,.593-4.347" fill="#ba8a53"/><path d="M511.1,208.046a13.464,13.464,0,0,1,.987-5.137,13.8,13.8,0,0,1,2.689-4.228,12.9,12.9,0,0,1,3.951-2.885,10.928,10.928,0,0,1,4.743-1.067,15.345,15.345,0,0,1,6.005,1.086,11.711,11.711,0,0,1,6.759,7.174,15.476,15.476,0,0,1,.829,5.057,14.427,14.427,0,0,1-1.028,5.592,11.994,11.994,0,0,1-7.052,6.817,14.752,14.752,0,0,1-5.2.908,13.519,13.519,0,0,1-5.137-.948,11.447,11.447,0,0,1-4.011-2.707,12.347,12.347,0,0,1-2.607-4.207,15.27,15.27,0,0,1-.929-5.455m13.593,11.42a8.035,8.035,0,0,0,3.4-.71,7.839,7.839,0,0,0,2.646-1.975,9.094,9.094,0,0,0,1.72-3.005,11.374,11.374,0,0,0,.612-3.793,22.3,22.3,0,0,0-.591-5.277,13.139,13.139,0,0,0-1.8-4.228,8.812,8.812,0,0,0-3.041-2.825,8.661,8.661,0,0,0-4.29-1.027,8.063,8.063,0,0,0-3.1.612,7.651,7.651,0,0,0-2.607,1.779,8.652,8.652,0,0,0-1.8,2.864,10.61,10.61,0,0,0-.671,3.913,22.209,22.209,0,0,0,.631,5.433,14.176,14.176,0,0,0,1.839,4.348,8.822,8.822,0,0,0,2.983,2.863,7.972,7.972,0,0,0,4.069,1.028" fill="#ba8a53"/><path d="M565.909,201.407a3.326,3.326,0,0,1-.593.08,1.151,1.151,0,0,1-.75-.2,1.385,1.385,0,0,1-.358-.434,8.019,8.019,0,0,0-2.449-3.28,6.494,6.494,0,0,0-3.872-1.028,6.19,6.19,0,0,0-1.8.256,4.506,4.506,0,0,0-1.481.751,3.686,3.686,0,0,0-1.007,1.206,3.315,3.315,0,0,0-.377,1.581,3.659,3.659,0,0,0,1.561,3.042,20.428,20.428,0,0,0,4.6,2.411,16.123,16.123,0,0,1,5.59,3.338,6.217,6.217,0,0,1,1.8,4.525,8.977,8.977,0,0,1-.5,3.024,6.447,6.447,0,0,1-1.538,2.45,7.2,7.2,0,0,1-2.708,1.64,11.92,11.92,0,0,1-3.991.593,17.849,17.849,0,0,1-4.445-.515,12.646,12.646,0,0,1-3.38-1.342q-.12-1.661-.356-3.2t-.553-3.082a1.682,1.682,0,0,1,.673-.119,1.111,1.111,0,0,1,.731.217,1.848,1.848,0,0,1,.453.692,9.528,9.528,0,0,0,2.549,4.19,6.486,6.486,0,0,0,4.365,1.343,6.271,6.271,0,0,0,2.215-.357,4.359,4.359,0,0,0,1.579-.986,4.207,4.207,0,0,0,.95-1.423,4.533,4.533,0,0,0,.317-1.7,4.017,4.017,0,0,0-1.4-3.24,13.237,13.237,0,0,0-4.011-2.134,31.666,31.666,0,0,1-3.082-1.323,10.212,10.212,0,0,1-2.371-1.6,6.31,6.31,0,0,1-1.521-2.114,7.633,7.633,0,0,1,0-5.611,6.431,6.431,0,0,1,1.54-2.233,7.457,7.457,0,0,1,2.432-1.5,8.756,8.756,0,0,1,3.2-.554,17.242,17.242,0,0,1,3.555.356,24.827,24.827,0,0,1,3.835,1.185q.08,1.187.217,2.549t.376,2.549" fill="#ba8a53"/><path d="M570.808,208.046a13.408,13.408,0,0,1,.988-5.137,13.7,13.7,0,0,1,2.687-4.228,12.9,12.9,0,0,1,3.953-2.885,10.905,10.905,0,0,1,4.74-1.067,15.356,15.356,0,0,1,6.007,1.086,11.715,11.715,0,0,1,6.757,7.174,15.4,15.4,0,0,1,.829,5.057,14.463,14.463,0,0,1-1.026,5.592,12.01,12.01,0,0,1-7.055,6.817,14.722,14.722,0,0,1-5.2.908,13.5,13.5,0,0,1-5.137-.948,11.412,11.412,0,0,1-4.011-2.707,12.338,12.338,0,0,1-2.61-4.207,15.337,15.337,0,0,1-.927-5.455m13.594,11.42a8.038,8.038,0,0,0,3.4-.71,7.9,7.9,0,0,0,2.647-1.975,9.2,9.2,0,0,0,1.72-3.005,11.374,11.374,0,0,0,.611-3.793,22.244,22.244,0,0,0-.594-5.277,13.112,13.112,0,0,0-1.8-4.228,8.83,8.83,0,0,0-3.044-2.825,8.643,8.643,0,0,0-4.286-1.027,8.06,8.06,0,0,0-3.1.612,7.692,7.692,0,0,0-2.61,1.779,8.629,8.629,0,0,0-1.8,2.864,10.589,10.589,0,0,0-.673,3.913,22.208,22.208,0,0,0,.632,5.433,14.2,14.2,0,0,0,1.837,4.348,8.819,8.819,0,0,0,2.985,2.863,7.963,7.963,0,0,0,4.07,1.028" fill="#ba8a53"/><path d="M620.876,214.606V198.088a1.289,1.289,0,0,0-.634-1.225,6.362,6.362,0,0,0-2.132-.553c-.292-.026-.437-.251-.437-.672a3.364,3.364,0,0,1,.079-.632c.661.053,1.331.1,2.017.137s1.329.06,1.936.06q.867,0,1.817-.06c.634-.039,1.251-.084,1.857-.137a3.384,3.384,0,0,1,.08.632c0,.421-.133.646-.394.672a4.511,4.511,0,0,0-1.84.553,1.319,1.319,0,0,0-.492,1.146v23.275a.91.91,0,0,1-.278.06c-.133.013-.236.019-.315.019a1.012,1.012,0,0,1-.514-.137,2.079,2.079,0,0,1-.553-.574l-16.044-21.141v18.612a1.163,1.163,0,0,0,.552,1.106,7.416,7.416,0,0,0,2.136.594c.261.053.394.263.394.632a3.366,3.366,0,0,1-.08.631q-.988-.079-1.994-.137c-.674-.041-1.3-.06-1.878-.06-.528,0-1.145.019-1.858.06s-1.356.084-1.934.137a3.2,3.2,0,0,1-.08-.631c0-.369.144-.579.436-.632a6.127,6.127,0,0,0,1.915-.594,1.212,1.212,0,0,0,.495-1.106V197.811a1.133,1.133,0,0,0-.456-.968,4.571,4.571,0,0,0-1.876-.533c-.291-.052-.434-.277-.434-.672a1.483,1.483,0,0,1,.037-.355l.039-.277c.528.053,1.028.092,1.5.118.421.026.87.046,1.343.06s.9.019,1.267.019a9.122,9.122,0,0,1,1.521.08,1.006,1.006,0,0,1,.611.395Z" fill="#ba8a53"/><path d="M628.5,208.046a13.464,13.464,0,0,1,.987-5.137,13.777,13.777,0,0,1,2.689-4.228,12.9,12.9,0,0,1,3.951-2.885,10.923,10.923,0,0,1,4.742-1.067,15.347,15.347,0,0,1,6.006,1.086,11.718,11.718,0,0,1,6.759,7.174,15.476,15.476,0,0,1,.829,5.057,14.427,14.427,0,0,1-1.028,5.592,12,12,0,0,1-7.053,6.817,14.746,14.746,0,0,1-5.2.908,13.519,13.519,0,0,1-5.137-.948,11.429,11.429,0,0,1-4.011-2.707,12.33,12.33,0,0,1-2.607-4.207,15.269,15.269,0,0,1-.929-5.455m13.593,11.42a8.028,8.028,0,0,0,3.4-.71,7.844,7.844,0,0,0,2.647-1.975,9.094,9.094,0,0,0,1.72-3.005,11.374,11.374,0,0,0,.612-3.793,22.247,22.247,0,0,0-.592-5.277,13.115,13.115,0,0,0-1.8-4.228,8.8,8.8,0,0,0-3.041-2.825,8.655,8.655,0,0,0-4.289-1.027,8.06,8.06,0,0,0-3.1.612,7.651,7.651,0,0,0-2.607,1.779,8.636,8.636,0,0,0-1.8,2.864,10.589,10.589,0,0,0-.672,3.913,22.26,22.26,0,0,0,.631,5.433,14.2,14.2,0,0,0,1.84,4.348,8.812,8.812,0,0,0,2.983,2.863,7.969,7.969,0,0,0,4.069,1.028" fill="#ba8a53"/><path d="M210.638,134.472c-.03-.065-.036-.1-.059-.124-.094-.079-.192-.153-.29-.227a48.265,48.265,0,0,0-6.363-4,53.813,53.813,0,0,0-23.842-6.054c-1.386-.04-2.771-.013-4.157.051q-2.946.137-5.864.533a55.514,55.514,0,0,0-9.772,2.239,51.68,51.68,0,0,0-17.642,9.794,48.047,48.047,0,0,0-11.379,14.084,48.544,48.544,0,0,0-5.682,22.633c-.015,1.368.063,2.734.156,4.1a45.875,45.875,0,0,0,.691,5.369,48.107,48.107,0,0,0,16.133,27.813A51.638,51.638,0,0,0,159.3,220.2a58.8,58.8,0,0,0,32.4,1.667,50.777,50.777,0,0,0,18.476-8.465,1.083,1.083,0,0,0,.513-.989q-.025-12.665-.013-25.329c0-.792.077-.694-.709-.694H176.37q-1.4,0-2.791,0c-.664,0-.61-.068-.611.634,0,1.194,0,2.388,0,3.581,0,.8-.086.711.693.711h31.173c.727,0,.652-.069.653.644q0,9.109.011,18.22a.981.981,0,0,1-.518.968,49.568,49.568,0,0,1-16.051,6.5,48.475,48.475,0,0,1-8.918,1.054,55.209,55.209,0,0,1-11.825-.97,49.764,49.764,0,0,1-9.645-2.915,45.944,45.944,0,0,1-13.587-8.684,43.848,43.848,0,0,1-14.115-30.474,44.522,44.522,0,0,1,.59-9.435,43.767,43.767,0,0,1,14.66-25.952,46.213,46.213,0,0,1,12.106-7.527,50.348,50.348,0,0,1,15.6-3.847,49,49,0,0,1,6.413-.178,55.528,55.528,0,0,1,6.64.664,48.548,48.548,0,0,1,20.1,8.287c.472.334.389.322.756-.063.521-.546,1.035-1.1,1.549-1.65C209.725,135.463,210.186,134.961,210.638,134.472Zm24.729,17.643a.58.58,0,0,0-.085-.373q-.918-2.382-2.035-4.679a62.532,62.532,0,0,0-21.07-24.3,63.126,63.126,0,0,0-31.777-10.8,56.874,56.874,0,0,0-6.208-.062c-1.805.09-3.6.219-5.4.431a61.3,61.3,0,0,0-7.39,1.347,62.959,62.959,0,0,0-33.012,20.42A61.4,61.4,0,0,0,113.788,172a61.2,61.2,0,0,0,7.461,31.252A62.847,62.847,0,0,0,156.5,232.667a63.37,63.37,0,0,0,23.738,3.128c2.05-.124,4.087-.333,6.116-.641a61.721,61.721,0,0,0,10.01-2.386,63.008,63.008,0,0,0,27.973-18.583,61.71,61.71,0,0,0,9.839-15.494c.4-.915.792-1.836,1.139-2.773.112-.3.1-.318-.222-.353-.645-.069-1.281-.183-1.916-.315-.466-.1-.467-.089-.639.336a62.013,62.013,0,0,1-3,6.374,60.1,60.1,0,0,1-27.92,25.878,60.28,60.28,0,0,1-21.687,5.289,59.137,59.137,0,0,1-7.364-.052,62.781,62.781,0,0,1-7.557-.968,60.044,60.044,0,0,1-42.034-31.4,58.223,58.223,0,0,1-5.085-14.059A59.093,59.093,0,0,1,116.5,174.86a59.953,59.953,0,0,1,.289-6.832,56.756,56.756,0,0,1,1.119-7.006,58.368,58.368,0,0,1,5.927-15.582,60.086,60.086,0,0,1,30.03-26.512,60.634,60.634,0,0,1,20.362-4.351,59.615,59.615,0,0,1,7.94.21A62.055,62.055,0,0,1,189.9,116a60.144,60.144,0,0,1,33.058,20.134,58.775,58.775,0,0,1,9.207,15.142q.224.534.441,1.07c.057.141.124.24.308.206C233.732,152.4,234.555,152.26,235.367,152.115Zm8.037,42.977c-.209-.088-.331.023-.467.032-.458.03-.674.276-.829.719a64.033,64.033,0,0,1-3.852,8.815,67.6,67.6,0,0,1-10.087,14.273,69.016,69.016,0,0,1-8.139,7.543,71.9,71.9,0,0,1-40.906,15.18c-2.559.11-5.121.1-7.683-.045a72.688,72.688,0,0,1-7.423-.795A71.424,71.424,0,0,1,139.35,232a69.658,69.658,0,0,1-12.287-9.092,68.408,68.408,0,0,1-11.844-14.38,66.329,66.329,0,0,1-5.988-12.449,65.285,65.285,0,0,1-3.1-12.324,62.972,62.972,0,0,1-.684-7.066,66.488,66.488,0,0,1,1.615-17.606,65.883,65.883,0,0,1,6.3-16.629,68.108,68.108,0,0,1,11-14.964,68.907,68.907,0,0,1,6.919-6.23,70.447,70.447,0,0,1,20.289-11.149,71.521,71.521,0,0,1,14.7-3.487c2.438-.314,4.885-.5,7.338-.579a68.053,68.053,0,0,1,7,.153c2.223.158,4.433.4,6.633.752a70.891,70.891,0,0,1,37.691,18.582,68.475,68.475,0,0,1,7.491,8.4,66.977,66.977,0,0,1,8.005,13.688c.638,1.463,1.218,2.95,1.751,4.455.057.16.067.389.257.434a2.943,2.943,0,0,0,.979.181c-.051-.166-.084-.283-.123-.4a67.675,67.675,0,0,0-3.079-7.49,68.587,68.587,0,0,0-8.923-13.862,69.97,69.97,0,0,0-11.181-10.808,71.7,71.7,0,0,0-22.362-11.675,73.7,73.7,0,0,0-29.885-2.973c-2.407.26-4.8.612-7.167,1.1a72.066,72.066,0,0,0-20.669,7.692,70.618,70.618,0,0,0-20.079,16.7,67.784,67.784,0,0,0-9.752,15.684,66.759,66.759,0,0,0,.435,55.406,68.64,68.64,0,0,0,11.348,17.076,69.75,69.75,0,0,0,8.157,7.677A72.845,72.845,0,0,0,171.7,242.58c2.067.1,4.136.154,6.209.064,2.016-.087,4.026-.216,6.032-.432a69.439,69.439,0,0,0,7.93-1.324,72.039,72.039,0,0,0,20.481-8.04,70.486,70.486,0,0,0,19.016-16.114,67.847,67.847,0,0,0,10.894-18.461C242.67,197.231,243.069,196.183,243.4,195.092Zm-55.391-34.081h7.052q3.764,0,7.526,0c.455,0,.46-.007.461-.467q0-1.947,0-3.894c0-.516,0-.516-.518-.521-.1,0-.21,0-.316,0H179.483q-3,0-6,0c-.512,0-.515,0-.515.524q0,1.9,0,3.79c0,.566,0,.566.573.568h14.472Z" fill="#fff"/><path d="M210.638,134.472c-.452.489-.913.991-1.378,1.49-.514.552-1.028,1.1-1.549,1.65-.367.385-.284.4-.756.063a48.548,48.548,0,0,0-20.1-8.287,55.528,55.528,0,0,0-6.64-.664,49,49,0,0,0-6.413.178,50.348,50.348,0,0,0-15.6,3.847,46.213,46.213,0,0,0-12.106,7.527,43.767,43.767,0,0,0-14.66,25.952,44.522,44.522,0,0,0-.59,9.435,43.848,43.848,0,0,0,14.115,30.474,45.944,45.944,0,0,0,13.587,8.684,49.764,49.764,0,0,0,9.645,2.915,55.209,55.209,0,0,0,11.825.97,48.475,48.475,0,0,0,8.918-1.054,49.568,49.568,0,0,0,16.051-6.5.981.981,0,0,0,.518-.968q-.024-9.111-.011-18.22c0-.713.074-.643-.653-.644H173.662c-.779,0-.691.087-.693-.711,0-1.193,0-2.387,0-3.581,0-.7-.053-.633.611-.634q1.4,0,2.791,0h33.594c.786,0,.709-.1.709.694q0,12.664.013,25.329a1.083,1.083,0,0,1-.513.989,50.777,50.777,0,0,1-18.476,8.465,59.4,59.4,0,0,1-32.4-1.667,51.638,51.638,0,0,1-16.73-9.522,48.107,48.107,0,0,1-16.133-27.813,45.875,45.875,0,0,1-.691-5.369c-.093-1.366-.171-2.732-.156-4.1a48.544,48.544,0,0,1,5.682-22.633,48.047,48.047,0,0,1,11.379-14.084,51.68,51.68,0,0,1,17.642-9.794,55.514,55.514,0,0,1,9.772-2.239q2.92-.4,5.864-.533c1.386-.064,2.771-.091,4.157-.051a53.813,53.813,0,0,1,23.842,6.054,48.265,48.265,0,0,1,6.363,4c.1.074.2.148.29.227C210.6,134.368,210.608,134.407,210.638,134.472Z" fill="#be8c55"/><path d="M235.367,152.115c-.812.145-1.635.288-2.456.441-.184.034-.251-.065-.308-.206q-.218-.536-.441-1.07a58.775,58.775,0,0,0-9.207-15.142A60.144,60.144,0,0,0,189.9,116a62.055,62.055,0,0,0-7.733-1.217,59.615,59.615,0,0,0-7.94-.21,60.634,60.634,0,0,0-20.362,4.351,60.086,60.086,0,0,0-30.03,26.512,58.368,58.368,0,0,0-5.927,15.582,56.756,56.756,0,0,0-1.119,7.006,59.953,59.953,0,0,0-.289,6.832,59.093,59.093,0,0,0,1.388,11.786,58.223,58.223,0,0,0,5.085,14.059,59.1,59.1,0,0,0,8.262,12.1A60.136,60.136,0,0,0,165,232.107a62.781,62.781,0,0,0,7.557.968,59.137,59.137,0,0,0,7.364.052,60.237,60.237,0,0,0,37.71-15.922,59.444,59.444,0,0,0,11.9-15.245,62.013,62.013,0,0,0,3-6.374c.172-.425.173-.432.639-.336.635.132,1.271.246,1.916.315.321.035.334.052.222.353-.347.937-.734,1.858-1.139,2.773a61.71,61.71,0,0,1-9.839,15.494,63.008,63.008,0,0,1-27.973,18.583,61.721,61.721,0,0,1-10.01,2.386c-2.029.308-4.066.517-6.116.641a62.916,62.916,0,0,1-58.986-32.539,61.38,61.38,0,0,1-2.189-54.334,61.582,61.582,0,0,1,9.331-14.827,62.959,62.959,0,0,1,33.012-20.42,61.3,61.3,0,0,1,7.39-1.347c1.795-.212,3.594-.341,5.4-.431a56.874,56.874,0,0,1,6.208.062,63.126,63.126,0,0,1,31.777,10.8,62.532,62.532,0,0,1,21.07,24.3q1.119,2.295,2.035,4.679A.58.58,0,0,1,235.367,152.115Z" fill="#be8c55"/><path d="M243.4,195.092c-.335,1.091-.734,2.139-1.144,3.181a67.847,67.847,0,0,1-10.894,18.461,70.486,70.486,0,0,1-19.016,16.114,72.039,72.039,0,0,1-20.481,8.04,69.439,69.439,0,0,1-7.93,1.324c-2.006.216-4.016.345-6.032.432-2.073.09-4.142.037-6.209-.064a72.4,72.4,0,0,1-41.562-15.764,69.75,69.75,0,0,1-8.157-7.677,68.64,68.64,0,0,1-11.348-17.076,66.78,66.78,0,0,1-.435-55.406,67.784,67.784,0,0,1,9.752-15.684,70.618,70.618,0,0,1,20.079-16.7,72.066,72.066,0,0,1,20.669-7.692c2.368-.492,4.76-.844,7.167-1.1a72.779,72.779,0,0,1,52.247,14.648,69.97,69.97,0,0,1,11.181,10.808,68.587,68.587,0,0,1,8.923,13.862,67.675,67.675,0,0,1,3.079,7.49c.039.114.072.231.123.4a2.943,2.943,0,0,1-.979-.181c-.19-.045-.2-.274-.257-.434-.533-1.505-1.113-2.992-1.751-4.455a66.977,66.977,0,0,0-8.005-13.688,68.475,68.475,0,0,0-7.491-8.4,71.025,71.025,0,0,0-37.691-18.582c-2.2-.348-4.41-.594-6.633-.752a68.053,68.053,0,0,0-7-.153c-2.453.077-4.9.265-7.338.579a71.521,71.521,0,0,0-14.7,3.487,70.447,70.447,0,0,0-20.289,11.149,68.907,68.907,0,0,0-6.919,6.23,68.108,68.108,0,0,0-11,14.964,65.883,65.883,0,0,0-6.3,16.629,66.488,66.488,0,0,0-1.615,17.606,62.972,62.972,0,0,0,.684,7.066,65.285,65.285,0,0,0,3.1,12.324,66.329,66.329,0,0,0,5.988,12.449,68.408,68.408,0,0,0,11.844,14.38A69.658,69.658,0,0,0,139.35,232a71.424,71.424,0,0,0,24.668,8.818,72.688,72.688,0,0,0,7.423.795c2.562.145,5.124.155,7.683.045a71.406,71.406,0,0,0,40.906-15.18,69.016,69.016,0,0,0,8.139-7.543,67.6,67.6,0,0,0,10.087-14.273,64.033,64.033,0,0,0,3.852-8.815c.155-.443.371-.689.829-.719C243.073,195.115,243.2,195,243.4,195.092Z" fill="#c5925a"/><path d="M188.013,161.011H173.541c-.571,0-.572,0-.573-.568q0-1.895,0-3.79c0-.52,0-.524.515-.524q3,0,6,0h22.735c.106,0,.211,0,.316,0,.514,0,.517,0,.518.521q0,1.947,0,3.894c0,.46-.006.466-.461.467q-3.764,0-7.526,0Z" fill="#be8c55"/></g></svg>