<svg xmlns="http://www.w3.org/2000/svg" width="262.973" height="179" viewBox="0 0 262.973 179"><g transform="translate(-237.84 -181.13)"><g transform="translate(237.84 305.934)"><path d="M248.384,371.348a12.1,12.1,0,0,1-4.641-.821,9.039,9.039,0,0,1-3.3-2.257,9.3,9.3,0,0,1-1.958-3.377,13.158,13.158,0,0,1-.647-4.183,11.578,11.578,0,0,1,.647-3.757,10.38,10.38,0,0,1,1.958-3.424,10.007,10.007,0,0,1,3.3-2.494,10.537,10.537,0,0,1,4.641-.963q1.041,0,1.91.046t1.656.158q.79.111,1.547.285t1.578.394a18.622,18.622,0,0,0,.221,2.085q.189,1.23.505,2.493a1.125,1.125,0,0,1-.505.126,1.535,1.535,0,0,1-.457-.063.412.412,0,0,1-.269-.347,5.169,5.169,0,0,0-1.8-2.968,6.075,6.075,0,0,0-3.567-.883,8.839,8.839,0,0,0-3.457.631,7.02,7.02,0,0,0-2.526,1.768,7.475,7.475,0,0,0-1.547,2.731,11.39,11.39,0,0,0-.522,3.551,11.7,11.7,0,0,0,.663,4.01,10.224,10.224,0,0,0,1.783,3.157,7.945,7.945,0,0,0,2.62,2.053,7.263,7.263,0,0,0,3.2.725,8.352,8.352,0,0,0,2.289-.269,4.259,4.259,0,0,0,1.547-.773,4.455,4.455,0,0,0,1.041-1.247,13.311,13.311,0,0,0,.806-1.689.77.77,0,0,1,.757-.473,1.263,1.263,0,0,1,.332.047.991.991,0,0,1,.268.11q-.38,1.105-.758,2.431t-.632,2.652q-1.547.252-3.157.394t-3.536.142" transform="translate(-237.84 -344.105)" fill="#fff"/><path d="M270.69,368.761a.771.771,0,0,0,.473.758,3.119,3.119,0,0,0,1.294.221H275.9a4.706,4.706,0,0,0,1.579-.238,3.219,3.219,0,0,0,1.136-.678,4.433,4.433,0,0,0,.837-1.089,9.069,9.069,0,0,0,.647-1.468.369.369,0,0,1,.379-.252.8.8,0,0,1,.331.079c.115.053.237.11.363.173q-.221.947-.426,2t-.362,2.383a.549.549,0,0,1-.19.443.723.723,0,0,1-.379.094q-.538,0-1.341-.08t-1.4-.078h-7.892q-.727,0-1.831.047t-2.116.111a2.751,2.751,0,0,1-.063-.505c0-.295.105-.462.317-.505a6.055,6.055,0,0,0,1.767-.489.894.894,0,0,0,.474-.837v-16.1a.969.969,0,0,0-.442-.9,5.2,5.2,0,0,0-1.7-.458.329.329,0,0,1-.237-.173.675.675,0,0,1-.08-.332,2.843,2.843,0,0,1,.063-.536q1.073.063,2.116.11t1.768.048q1.073,0,2.273-.048t2.146-.11a2.734,2.734,0,0,1,.063.5q0,.538-.347.568a6.981,6.981,0,0,0-2,.458,1.1,1.1,0,0,0-.647,1.088Z" transform="translate(-244.014 -344.169)" fill="#fff"/><path d="M299.636,361.714H292.6l-2.021,5.083a1.735,1.735,0,0,0-.157.632q0,.662,1.926.946a.38.38,0,0,1,.3.174.673.673,0,0,1,.079.332,2.792,2.792,0,0,1-.063.5q-.853-.064-1.8-.11T289,369.228c-.421,0-.851.011-1.294.032s-.906.063-1.389.126a2.085,2.085,0,0,1-.063-.5.839.839,0,0,1,.079-.379.393.393,0,0,1,.332-.19,5.569,5.569,0,0,0,1.468-.394,1.438,1.438,0,0,0,.71-.742l7.608-18.31q.222-.536.6-.536a1.743,1.743,0,0,1,.379.063l7.64,18.879a1.391,1.391,0,0,0,.852.694,6.183,6.183,0,0,0,1.294.348.744.744,0,0,1,.3.174.55.55,0,0,1,.111.395,2.794,2.794,0,0,1-.063.5q-1.01-.064-1.989-.11t-1.831-.048q-.885,0-2.02.048t-2.053.11a2.722,2.722,0,0,1-.063-.5.55.55,0,0,1,.111-.395.308.308,0,0,1,.205-.111,7.184,7.184,0,0,0,1.326-.362c.336-.137.505-.342.505-.615a1.246,1.246,0,0,0-.127-.475Zm-.5-1.294-2.936-7.734-3.062,7.734Zm-.126-18.057a2.221,2.221,0,0,1,1.105.773,1.71,1.71,0,0,1,.379.994.862.862,0,0,1-.694.916q-.727.189-1.342.379t-1.2.395q-.584.206-1.2.441t-1.373.553a.886.886,0,0,1-.316-.6.524.524,0,0,1,.252-.411Z" transform="translate(-248.778 -342.363)" fill="#fff"/><path d="M332.494,363.363a12.141,12.141,0,0,1-.41,3.267,6.017,6.017,0,0,1-3.914,4.2,11.522,11.522,0,0,1-3.947.583,11.843,11.843,0,0,1-4.387-.679,6.259,6.259,0,0,1-2.573-1.783,5.857,5.857,0,0,1-1.2-2.541,14.271,14.271,0,0,1-.3-2.921V352.756a1.008,1.008,0,0,0-.443-.916,4.467,4.467,0,0,0-1.673-.442c-.211-.02-.316-.2-.316-.536a2.693,2.693,0,0,1,.064-.505q.947.064,1.941.111t1.91.047q.82,0,1.925-.047t2.052-.111a2.749,2.749,0,0,1,.063.505c0,.337-.1.516-.315.536a5.291,5.291,0,0,0-1.72.442.965.965,0,0,0-.521.916V362.8a8.294,8.294,0,0,0,1.31,5.035q1.31,1.751,4.435,1.752a9.919,9.919,0,0,0,3-.395,4.478,4.478,0,0,0,3.157-3.346,12.383,12.383,0,0,0,.348-3.14v-9.945a.988.988,0,0,0-.474-.916,4.823,4.823,0,0,0-1.7-.442c-.232-.02-.348-.2-.348-.536a2.748,2.748,0,0,1,.063-.505q.915.064,1.784.111t1.5.047c.505,0,1.015-.015,1.531-.047s1.026-.068,1.532-.111a2.817,2.817,0,0,1,.063.505.7.7,0,0,1-.094.331.368.368,0,0,1-.253.205,3.955,3.955,0,0,0-1.626.426,1.035,1.035,0,0,0-.458.931Z" transform="translate(-254.896 -344.169)" fill="#fff"/><path d="M365.556,360.774a11,11,0,0,1-.647,3.693,9.84,9.84,0,0,1-1.957,3.3,9.7,9.7,0,0,1-3.315,2.367,11.365,11.365,0,0,1-4.688.9h-6.472q-.821,0-1.862.048t-2.02.111a2.686,2.686,0,0,1-.063-.505c0-.295.116-.462.347-.505a8.622,8.622,0,0,0,1.673-.536.854.854,0,0,0,.505-.82V352.755a.915.915,0,0,0-.474-.883,6.464,6.464,0,0,0-1.705-.474.338.338,0,0,1-.267-.189.757.757,0,0,1-.08-.348,2.679,2.679,0,0,1,.063-.5c.441.042.826.068,1.152.079s.637.026.932.047.584.032.868.032h7.371a12.226,12.226,0,0,1,4.657.82,9.5,9.5,0,0,1,3.33,2.21,9.03,9.03,0,0,1,1.989,3.252,11.774,11.774,0,0,1,.663,3.978m-3.314.6q0-4.861-2.415-7.213t-7.056-2.352h-2.746V368.6a.891.891,0,0,0,.158.536,1.032,1.032,0,0,0,.536.348,4.867,4.867,0,0,0,1.042.19q.663.063,1.673.063a12.538,12.538,0,0,0,4.1-.584,6.78,6.78,0,0,0,2.715-1.673,6.519,6.519,0,0,0,1.516-2.637,11.859,11.859,0,0,0,.473-3.472" transform="translate(-261.946 -344.169)" fill="#fff"/><path d="M380.771,368.824a.893.893,0,0,0,.442.868,6.949,6.949,0,0,0,1.641.489c.211.043.317.211.317.505a2.749,2.749,0,0,1-.063.505q-.979-.064-1.958-.111t-1.862-.048q-.852,0-1.879.048t-1.941.111a2.754,2.754,0,0,1-.063-.505c0-.295.105-.462.317-.505a5.845,5.845,0,0,0,1.641-.473.931.931,0,0,0,.442-.884V352.755a.969.969,0,0,0-.442-.9,5.026,5.026,0,0,0-1.641-.458.3.3,0,0,1-.253-.189.935.935,0,0,1-.063-.348,2.747,2.747,0,0,1,.063-.5q.947.063,1.973.11t1.847.048q.79,0,1.815-.048t2-.11a2.742,2.742,0,0,1,.063.5c0,.316-.106.5-.317.536a5.019,5.019,0,0,0-1.641.458.968.968,0,0,0-.442.9Z" transform="translate(-268.921 -344.169)" fill="#fff"/><path d="M400.942,363.456H393.9l-2.021,5.082a1.732,1.732,0,0,0-.157.632q0,.662,1.925.946a.381.381,0,0,1,.3.174.673.673,0,0,1,.079.332,2.794,2.794,0,0,1-.063.5q-.853-.064-1.8-.111t-1.862-.047c-.421,0-.851.011-1.294.032s-.906.063-1.389.126a2.092,2.092,0,0,1-.063-.5.845.845,0,0,1,.079-.38.4.4,0,0,1,.332-.189,5.577,5.577,0,0,0,1.468-.394,1.441,1.441,0,0,0,.71-.742l7.608-18.31q.222-.536.6-.536a1.744,1.744,0,0,1,.379.063l7.64,18.879a1.394,1.394,0,0,0,.852.694,6.171,6.171,0,0,0,1.294.348.754.754,0,0,1,.3.174.549.549,0,0,1,.111.395,2.794,2.794,0,0,1-.063.5q-1.01-.064-1.989-.111c-.652-.032-1.263-.047-1.831-.047q-.885,0-2.02.047t-2.053.111a2.724,2.724,0,0,1-.063-.5.549.549,0,0,1,.111-.395.306.306,0,0,1,.205-.111,7.159,7.159,0,0,0,1.325-.362c.337-.137.506-.342.506-.615a1.242,1.242,0,0,0-.127-.474Zm-.5-1.294-2.936-7.734-3.062,7.734Z" transform="translate(-271.667 -344.105)" fill="#fff"/><path d="M442.819,370.812q-1.42.253-2.9.395t-3.472.142a12.4,12.4,0,0,1-4.719-.82,9.266,9.266,0,0,1-3.331-2.242,9.048,9.048,0,0,1-1.974-3.362,13.26,13.26,0,0,1-.647-4.215,11.662,11.662,0,0,1,.647-3.788,10.005,10.005,0,0,1,5.257-5.888,10.534,10.534,0,0,1,4.641-.963q.945,0,1.815.047c.577.032,1.153.09,1.721.173s1.142.185,1.721.3,1.2.258,1.877.427q.064,1.105.238,2.289a23.635,23.635,0,0,0,.457,2.32.47.47,0,0,1-.252.094,2,2,0,0,1-.315.032.582.582,0,0,1-.632-.41,5.055,5.055,0,0,0-1.926-3.03,6.924,6.924,0,0,0-3.883-.916,8.756,8.756,0,0,0-3.536.663,6.923,6.923,0,0,0-2.509,1.815,7.712,7.712,0,0,0-1.5,2.747,11.387,11.387,0,0,0-.505,3.457,11.961,11.961,0,0,0,.648,4.009,9.968,9.968,0,0,0,1.767,3.157,7.851,7.851,0,0,0,2.652,2.052,7.681,7.681,0,0,0,3.33.725,13.592,13.592,0,0,0,1.848-.126,10.372,10.372,0,0,0,1.564-.316v-4.829a1.31,1.31,0,0,0-.505-1.184,4.3,4.3,0,0,0-1.705-.49.414.414,0,0,1-.348-.221.857.857,0,0,1-.094-.379,2.051,2.051,0,0,1,.062-.5q.916.064,2.021.111t1.927.046q.819,0,1.877-.046c.705-.032,1.32-.068,1.848-.111a2.789,2.789,0,0,1,.062.5.613.613,0,0,1-.11.427.516.516,0,0,1-.268.142,3.061,3.061,0,0,0-1.4.427,1.092,1.092,0,0,0-.394.931v5.619a.715.715,0,0,1-.159.474,1.662,1.662,0,0,1-.885.315" transform="translate(-280.301 -344.105)" fill="#fff"/><path d="M465.749,363.456h-7.04l-2.02,5.082a1.716,1.716,0,0,0-.157.632q0,.662,1.924.946a.381.381,0,0,1,.3.174.681.681,0,0,1,.079.332,2.737,2.737,0,0,1-.063.5q-.853-.064-1.8-.111t-1.862-.047c-.422,0-.852.011-1.294.032s-.906.063-1.389.126a2.092,2.092,0,0,1-.063-.5.845.845,0,0,1,.079-.38.4.4,0,0,1,.333-.189,5.577,5.577,0,0,0,1.468-.394,1.439,1.439,0,0,0,.709-.742l7.609-18.31q.221-.536.6-.536a1.739,1.739,0,0,1,.378.063l7.641,18.879a1.39,1.39,0,0,0,.851.694,6.189,6.189,0,0,0,1.3.348.754.754,0,0,1,.3.174.549.549,0,0,1,.111.395,2.739,2.739,0,0,1-.063.5c-.673-.043-1.337-.08-1.989-.111s-1.264-.047-1.831-.047q-.885,0-2.021.047t-2.052.111a2.739,2.739,0,0,1-.063-.5.549.549,0,0,1,.111-.395.307.307,0,0,1,.206-.111,7.176,7.176,0,0,0,1.325-.362c.336-.137.505-.342.505-.615a1.227,1.227,0,0,0-.127-.474Zm-.5-1.294-2.936-7.734-3.063,7.734Z" transform="translate(-286.309 -344.105)" fill="#fff"/><path d="M487.578,368.761a.771.771,0,0,0,.473.758,3.119,3.119,0,0,0,1.294.221h3.442a4.712,4.712,0,0,0,1.579-.238,3.209,3.209,0,0,0,1.135-.678,4.435,4.435,0,0,0,.838-1.089,9.136,9.136,0,0,0,.647-1.468.368.368,0,0,1,.379-.252.8.8,0,0,1,.332.079c.115.053.236.11.363.173q-.222.947-.427,2t-.363,2.383c-.021.232-.084.379-.19.443a.72.72,0,0,1-.378.094q-.538,0-1.342-.08t-1.4-.078h-7.892c-.485,0-1.095.016-1.831.047s-1.443.068-2.116.111a2.754,2.754,0,0,1-.063-.505c0-.295.1-.462.316-.505a6.071,6.071,0,0,0,1.768-.489.894.894,0,0,0,.473-.837v-16.1a.969.969,0,0,0-.441-.9,5.2,5.2,0,0,0-1.705-.458.326.326,0,0,1-.236-.173.676.676,0,0,1-.081-.332,2.846,2.846,0,0,1,.063-.536q1.073.063,2.116.11c.7.032,1.283.048,1.769.048q1.073,0,2.273-.048t2.146-.11a2.679,2.679,0,0,1,.063.5q0,.538-.348.568a6.982,6.982,0,0,0-2,.458,1.1,1.1,0,0,0-.647,1.088Z" transform="translate(-293.018 -344.169)" fill="#fff"/><path d="M517.143,353.04a1.9,1.9,0,0,0,.125-.631.708.708,0,0,0-.441-.663,4.772,4.772,0,0,0-1.421-.348c-.252-.02-.378-.2-.378-.536a1.155,1.155,0,0,1,.032-.285.9.9,0,0,1,.032-.221c.04,0,.178.011.409.032s.509.043.836.063.679.037,1.058.048.736.015,1.074.015q1.04,0,1.91-.063c.579-.041.92-.073,1.026-.094a.92.92,0,0,0,.032.221l.015.174.017.142c0,.337-.117.526-.347.568a3.819,3.819,0,0,0-1.483.315,1.65,1.65,0,0,0-.728.853l-7.8,18.752-.142.016-.142.015c-.233,0-.422-.179-.569-.536l-7.419-18.4a1.3,1.3,0,0,0-.632-.663,5.761,5.761,0,0,0-1.578-.378c-.231-.02-.348-.211-.348-.568a2.062,2.062,0,0,1,.063-.505q.947.064,2.051.111t1.926.047q.79,0,1.927-.047t2.115-.111a2.688,2.688,0,0,1,.063.505q0,.474-.379.536-1.865.189-1.862,1.011a1.277,1.277,0,0,0,.063.41l5.367,13.733Z" transform="translate(-297.137 -344.169)" fill="#fff"/><path d="M536.346,362.083h-7.04l-2.02,5.082a1.717,1.717,0,0,0-.157.632q0,.662,1.924.946a.381.381,0,0,1,.3.174.682.682,0,0,1,.079.332,2.737,2.737,0,0,1-.063.5q-.853-.064-1.8-.111t-1.862-.047c-.422,0-.852.011-1.294.032s-.906.063-1.389.126a2.092,2.092,0,0,1-.063-.5.844.844,0,0,1,.079-.38.4.4,0,0,1,.333-.189,5.577,5.577,0,0,0,1.468-.394,1.44,1.44,0,0,0,.709-.742l7.609-18.31q.221-.536.6-.536a1.74,1.74,0,0,1,.378.063l7.641,18.879a1.39,1.39,0,0,0,.852.694,6.19,6.19,0,0,0,1.295.348.755.755,0,0,1,.3.174.55.55,0,0,1,.111.395,2.738,2.738,0,0,1-.064.5c-.673-.043-1.337-.08-1.989-.111s-1.264-.047-1.831-.047q-.885,0-2.021.047t-2.052.111a2.737,2.737,0,0,1-.063-.5.549.549,0,0,1,.111-.395.308.308,0,0,1,.206-.111,7.175,7.175,0,0,0,1.325-.362c.336-.137.505-.342.505-.615a1.227,1.227,0,0,0-.127-.474ZM529.558,346.3a7.993,7.993,0,0,1,1.5-1.626,2.248,2.248,0,0,1,2.352-.553,7.3,7.3,0,0,1,1.042.442,3.7,3.7,0,0,0,.774.3,2.949,2.949,0,0,0,.679.078,3.041,3.041,0,0,0,1.2-.2,2.971,2.971,0,0,0,.916-.648,1.1,1.1,0,0,1,.379.3.528.528,0,0,1,.1.3l-.032.174L538.4,345a7.843,7.843,0,0,1-1.437,1.578,2.412,2.412,0,0,1-1.531.6,3.752,3.752,0,0,1-.993-.142,5.2,5.2,0,0,1-.964-.362,7.285,7.285,0,0,0-.9-.395,1.891,1.891,0,0,0-.585-.111,2.319,2.319,0,0,0-1.025.237,3.49,3.49,0,0,0-.995.773q-.505-.252-.5-.6a.578.578,0,0,1,.094-.284m6.283,14.49-2.936-7.734-3.063,7.734Z" transform="translate(-302.26 -342.732)" fill="#fff"/><path d="M550.775,360.71a10.724,10.724,0,0,1,.789-4.1,11.039,11.039,0,0,1,2.147-3.378,10.37,10.37,0,0,1,3.158-2.305,8.746,8.746,0,0,1,3.787-.851,12.26,12.26,0,0,1,4.8.868,9.355,9.355,0,0,1,5.4,5.73,12.334,12.334,0,0,1,.664,4.041,11.527,11.527,0,0,1-.821,4.466,9.581,9.581,0,0,1-5.636,5.447,11.757,11.757,0,0,1-4.151.725,10.8,10.8,0,0,1-4.1-.757,9.128,9.128,0,0,1-3.205-2.163,9.84,9.84,0,0,1-2.083-3.363,12.208,12.208,0,0,1-.742-4.356m10.861,9.124a6.4,6.4,0,0,0,2.714-.568,6.28,6.28,0,0,0,2.116-1.578,7.3,7.3,0,0,0,1.373-2.4,9.055,9.055,0,0,0,.489-3.031,17.749,17.749,0,0,0-.474-4.214,10.441,10.441,0,0,0-1.436-3.379,7.033,7.033,0,0,0-2.431-2.257,6.906,6.906,0,0,0-3.424-.82,6.415,6.415,0,0,0-2.478.49A6.109,6.109,0,0,0,556,353.5a6.919,6.919,0,0,0-1.437,2.289,8.442,8.442,0,0,0-.536,3.125,17.729,17.729,0,0,0,.5,4.341A11.363,11.363,0,0,0,556,366.723a7.053,7.053,0,0,0,2.384,2.289,6.377,6.377,0,0,0,3.252.821" transform="translate(-308.544 -344.105)" fill="#fff"/><path d="M282.384,393.488l.1-.18a.346.346,0,0,1,.192-.135,2.352,2.352,0,0,1,.361-.079,4.53,4.53,0,0,1,.632-.034c.119,0,.278,0,.473-.011l.632-.023c.226-.007.455-.018.688-.034s.447-.029.643-.044a1.924,1.924,0,0,1,.045.361c0,.24-.075.368-.225.383a2.726,2.726,0,0,0-1.082.3.592.592,0,0,0-.271.508c0,.015.012.214.034.6s.056,1.022.1,1.917.1,2.086.169,3.574.146,3.337.237,5.548a.794.794,0,0,0,.293.631,2.8,2.8,0,0,0,1.105.339.238.238,0,0,1,.169.124.483.483,0,0,1,.057.237,1.924,1.924,0,0,1-.046.36q-.79-.045-1.431-.078t-1.184-.034c-.151,0-.338,0-.564.011l-.711.023c-.248.008-.493.018-.732.033s-.451.03-.632.045a1.9,1.9,0,0,1-.044-.36c0-.241.074-.361.225-.361a4.872,4.872,0,0,0,1.229-.362.638.638,0,0,0,.327-.608c0-.046-.012-.324-.033-.834s-.053-1.135-.091-1.872-.075-1.533-.112-2.39-.076-1.665-.113-2.424-.071-1.413-.1-1.961-.045-.883-.045-1l-4.939,11.928a1.5,1.5,0,0,1-.169.3.259.259,0,0,1-.214.1.554.554,0,0,1-.2-.022l-5.524-12.673c-.015.15-.033.515-.056,1.094s-.053,1.267-.09,2.064-.079,1.638-.124,2.526-.087,1.706-.124,2.458-.068,1.383-.09,1.894-.034.782-.034.812q0,.7,1.533.97c.15.015.226.135.226.361a1.927,1.927,0,0,1-.046.36q-.608-.045-1.2-.078t-1.036-.034q-.362,0-.97.034t-1.15.078a1.853,1.853,0,0,1-.045-.36c0-.211.074-.331.225-.361a3.145,3.145,0,0,0,.981-.327.8.8,0,0,0,.417-.642q0-.2.045-1.139t.1-2.221q.056-1.285.124-2.728t.124-2.673q.056-1.228.09-2.03c.023-.533.034-.808.034-.823a.575.575,0,0,0-.282-.53,3.5,3.5,0,0,0-1.071-.3c-.15-.015-.225-.143-.225-.383a1.919,1.919,0,0,1,.045-.361c.2.015.417.03.665.044s.5.027.745.034l.71.023q.339.01.541.011a4.544,4.544,0,0,1,.632.034,2.42,2.42,0,0,1,.361.079.341.341,0,0,1,.191.135l.1.18,4.825,11.252Z" transform="translate(-244.751 -353.792)" fill="#fff"/><path d="M298.707,393.977v5.774h3.517a.658.658,0,0,0,.642-.44,4.863,4.863,0,0,0,.3-1.071.366.366,0,0,1,.406-.293.993.993,0,0,1,.18.022,1.535,1.535,0,0,1,.18.046c-.03.331-.056.707-.079,1.127s-.034.789-.034,1.105q0,.382.023.936c.015.368.045.785.09,1.252a1.387,1.387,0,0,1-.338.044.38.38,0,0,1-.428-.293,4.876,4.876,0,0,0-.3-1.071.659.659,0,0,0-.642-.44h-3.517V406c0,.316.2.526.608.632a8.933,8.933,0,0,0,2.007.158h1.24a3.074,3.074,0,0,0,1.139-.192,2.884,2.884,0,0,0,.858-.519,3.761,3.761,0,0,0,.665-.778,10.018,10.018,0,0,0,.563-.992c.046-.106.159-.158.339-.158a.5.5,0,0,1,.237.067c.082.045.162.091.236.135a5.5,5.5,0,0,0-.349,1.027q-.147.6-.282,1.138a8.147,8.147,0,0,1-.282.925c-.1.255-.222.383-.372.383-.12,0-.293-.008-.519-.023s-.47-.026-.733-.033-.53-.019-.8-.033-.5-.023-.7-.023h-4.938q-.655,0-1.4.034t-1.42.079a1.939,1.939,0,0,1-.046-.361q0-.316.226-.361a5.249,5.249,0,0,0,1.228-.338.644.644,0,0,0,.373-.632V394.654a.634.634,0,0,0-.327-.62,5.433,5.433,0,0,0-1.274-.35c-.151-.029-.226-.158-.226-.383a1.339,1.339,0,0,1,.012-.191l.034-.17c.646.045,1.187.076,1.624.09s.826.023,1.172.023h4.443q1.014,0,1.758-.068c.5-.045.827-.067.992-.067.2,0,.327.123.395.372a6.9,6.9,0,0,1,.17.891c.044.346.1.714.158,1.1a2.656,2.656,0,0,0,.337.992.656.656,0,0,1-.406.135.373.373,0,0,1-.383-.2q-.272-.586-.519-1a2.649,2.649,0,0,0-.575-.688,2.163,2.163,0,0,0-.79-.406,4.116,4.116,0,0,0-1.138-.136Z" transform="translate(-250.7 -353.785)" fill="#fff"/><path d="M327.4,400.388a7.88,7.88,0,0,1-.463,2.638,7.021,7.021,0,0,1-1.4,2.357,6.911,6.911,0,0,1-2.367,1.691,8.113,8.113,0,0,1-3.349.642H315.2q-.586,0-1.331.034t-1.443.079a1.939,1.939,0,0,1-.046-.361q0-.316.248-.361a6.152,6.152,0,0,0,1.194-.384.609.609,0,0,0,.361-.586V394.661a.654.654,0,0,0-.338-.632,4.661,4.661,0,0,0-1.218-.338.243.243,0,0,1-.192-.135.552.552,0,0,1-.057-.248,1.939,1.939,0,0,1,.046-.361q.474.045.823.056c.233.008.454.02.666.034s.417.023.619.023H319.8a8.734,8.734,0,0,1,3.326.586,6.808,6.808,0,0,1,2.379,1.578,6.461,6.461,0,0,1,1.42,2.322,8.417,8.417,0,0,1,.475,2.842m-2.369.429q0-3.473-1.725-5.153a6.938,6.938,0,0,0-5.039-1.68h-1.961v12a.637.637,0,0,0,.112.383.732.732,0,0,0,.383.248,3.453,3.453,0,0,0,.744.135q.474.045,1.2.046a8.973,8.973,0,0,0,2.931-.417,4.844,4.844,0,0,0,1.939-1.2A4.639,4.639,0,0,0,324.7,403.3a8.461,8.461,0,0,0,.338-2.48" transform="translate(-254.683 -353.792)" fill="#fff"/><path d="M338.271,406.139a.639.639,0,0,0,.316.62,5,5,0,0,0,1.173.35c.15.03.226.15.226.361a1.942,1.942,0,0,1-.046.361q-.7-.045-1.4-.079t-1.331-.034q-.61,0-1.342.034c-.488.022-.951.049-1.386.079a1.927,1.927,0,0,1-.045-.361q0-.316.226-.361a4.125,4.125,0,0,0,1.172-.339.664.664,0,0,0,.316-.631V394.661a.691.691,0,0,0-.316-.642,3.588,3.588,0,0,0-1.172-.327.216.216,0,0,1-.181-.135.658.658,0,0,1-.045-.248,1.927,1.927,0,0,1,.045-.361q.676.045,1.41.079t1.319.034q.563,0,1.3-.034t1.431-.079a1.942,1.942,0,0,1,.046.361c0,.225-.076.354-.226.383a3.588,3.588,0,0,0-1.173.327.691.691,0,0,0-.316.642Z" transform="translate(-259.665 -353.792)" fill="#fff"/><path d="M351.816,407.941a8.639,8.639,0,0,1-3.315-.587,6.465,6.465,0,0,1-2.357-1.612,6.648,6.648,0,0,1-1.4-2.412,9.393,9.393,0,0,1-.462-2.988,8.263,8.263,0,0,1,.462-2.684,7.423,7.423,0,0,1,1.4-2.447,7.157,7.157,0,0,1,2.357-1.781,7.514,7.514,0,0,1,3.315-.688q.744,0,1.365.034t1.184.113q.563.079,1.1.2t1.128.283a13.337,13.337,0,0,0,.158,1.488q.135.879.361,1.781a.809.809,0,0,1-.361.09,1.105,1.105,0,0,1-.327-.045.3.3,0,0,1-.191-.248,3.692,3.692,0,0,0-1.286-2.12,4.342,4.342,0,0,0-2.548-.631,6.31,6.31,0,0,0-2.469.451,5.019,5.019,0,0,0-1.8,1.262,5.331,5.331,0,0,0-1.1,1.95,8.134,8.134,0,0,0-.372,2.537,8.352,8.352,0,0,0,.473,2.864,7.311,7.311,0,0,0,1.275,2.255,5.656,5.656,0,0,0,1.871,1.465,5.17,5.17,0,0,0,2.289.519,5.989,5.989,0,0,0,1.635-.191,3.05,3.05,0,0,0,1.105-.553,3.178,3.178,0,0,0,.744-.891,9.4,9.4,0,0,0,.575-1.207.551.551,0,0,1,.541-.337.909.909,0,0,1,.237.034.681.681,0,0,1,.192.078q-.271.79-.541,1.737t-.451,1.894q-1.105.18-2.255.282t-2.526.1" transform="translate(-261.89 -353.746)" fill="#fff"/><path d="M367.634,406.139a.639.639,0,0,0,.316.62,5,5,0,0,0,1.173.35c.15.03.226.15.226.361a1.942,1.942,0,0,1-.046.361q-.7-.045-1.4-.079t-1.331-.034q-.61,0-1.342.034t-1.386.079a1.93,1.93,0,0,1-.045-.361q0-.316.226-.361a4.125,4.125,0,0,0,1.172-.339.664.664,0,0,0,.316-.631V394.661a.691.691,0,0,0-.316-.642,3.588,3.588,0,0,0-1.172-.327.216.216,0,0,1-.181-.135.659.659,0,0,1-.045-.248,1.929,1.929,0,0,1,.045-.361q.676.045,1.41.079t1.319.034q.563,0,1.3-.034t1.431-.079a1.941,1.941,0,0,1,.046.361c0,.225-.076.354-.226.383a3.588,3.588,0,0,0-1.173.327.691.691,0,0,0-.316.642Z" transform="translate(-266.3 -353.792)" fill="#fff"/><path d="M385.309,404.131v-9.426a.735.735,0,0,0-.362-.7,3.629,3.629,0,0,0-1.217-.316c-.166-.015-.248-.143-.248-.383a1.922,1.922,0,0,1,.045-.361q.564.045,1.15.078t1.1.034q.5,0,1.037-.034t1.06-.078a1.934,1.934,0,0,1,.046.361c0,.24-.076.368-.225.383a2.571,2.571,0,0,0-1.049.316.75.75,0,0,0-.282.654v13.281a.515.515,0,0,1-.158.034c-.076.008-.135.011-.18.011a.576.576,0,0,1-.293-.078,1.182,1.182,0,0,1-.316-.327l-9.156-12.064v10.621a.663.663,0,0,0,.316.631,4.237,4.237,0,0,0,1.218.339q.225.045.225.361a1.979,1.979,0,0,1-.045.36q-.564-.045-1.139-.078t-1.071-.034q-.452,0-1.06.034t-1.1.078a1.864,1.864,0,0,1-.046-.36q0-.316.248-.361a3.522,3.522,0,0,0,1.094-.339.691.691,0,0,0,.282-.631V394.548a.647.647,0,0,0-.259-.553,2.624,2.624,0,0,0-1.071-.3c-.166-.029-.248-.158-.248-.383a.853.853,0,0,1,.022-.2l.022-.158q.452.045.858.067c.24.015.5.026.766.034s.511.011.722.011a5.189,5.189,0,0,1,.868.046.573.573,0,0,1,.349.225Z" transform="translate(-268.505 -353.792)" fill="#fff"/><path d="M401.445,402.3h-5.028l-1.444,3.631a1.226,1.226,0,0,0-.112.451q0,.473,1.375.677a.27.27,0,0,1,.214.124.483.483,0,0,1,.056.237,1.983,1.983,0,0,1-.045.36q-.608-.045-1.286-.078t-1.331-.034q-.45,0-.924.022c-.315.015-.646.045-.992.09a1.47,1.47,0,0,1-.046-.36.608.608,0,0,1,.057-.271.281.281,0,0,1,.237-.135,3.982,3.982,0,0,0,1.049-.282,1.031,1.031,0,0,0,.507-.53l5.435-13.079c.1-.255.248-.383.428-.383a1.227,1.227,0,0,1,.271.045l5.457,13.484a.993.993,0,0,0,.609.5,4.439,4.439,0,0,0,.924.248.548.548,0,0,1,.214.124.394.394,0,0,1,.08.283,1.929,1.929,0,0,1-.046.36q-.722-.045-1.42-.078t-1.308-.034q-.632,0-1.443.034c-.542.022-1.029.048-1.466.078a1.912,1.912,0,0,1-.045-.36.4.4,0,0,1,.079-.283l.147-.078a5.272,5.272,0,0,0,.947-.259c.241-.1.361-.245.361-.44a.881.881,0,0,0-.09-.338Zm-.361-.924-2.1-5.524-2.188,5.524Z" transform="translate(-272.645 -353.746)" fill="#fff"/><path d="M434.227,400.388a7.86,7.86,0,0,1-.463,2.638,7.009,7.009,0,0,1-1.4,2.357A6.9,6.9,0,0,1,430,407.074a8.11,8.11,0,0,1-3.349.642h-4.623q-.586,0-1.33.034t-1.444.079a1.93,1.93,0,0,1-.045-.361c0-.211.082-.331.248-.361a6.165,6.165,0,0,0,1.2-.384.609.609,0,0,0,.361-.586V394.661a.654.654,0,0,0-.339-.632,4.651,4.651,0,0,0-1.218-.338.243.243,0,0,1-.191-.135.541.541,0,0,1-.057-.248,1.929,1.929,0,0,1,.045-.361c.317.03.59.049.824.056s.454.02.665.034.417.023.62.023h5.266a8.734,8.734,0,0,1,3.326.586,6.8,6.8,0,0,1,2.378,1.578,6.452,6.452,0,0,1,1.421,2.322,8.416,8.416,0,0,1,.474,2.842m-2.368.429q0-3.473-1.725-5.153a6.94,6.94,0,0,0-5.04-1.68h-1.961v12a.638.638,0,0,0,.113.383.726.726,0,0,0,.383.248,3.434,3.434,0,0,0,.744.135c.316.03.714.046,1.2.046a8.976,8.976,0,0,0,2.931-.417,4.846,4.846,0,0,0,1.938-1.2,4.65,4.65,0,0,0,1.083-1.883,8.461,8.461,0,0,0,.338-2.48" transform="translate(-278.818 -353.792)" fill="#fff"/><path d="M441.233,400.342a7.677,7.677,0,0,1,.564-2.931A7.867,7.867,0,0,1,443.331,395a7.372,7.372,0,0,1,2.255-1.646,6.24,6.24,0,0,1,2.706-.608,8.756,8.756,0,0,1,3.427.619,6.684,6.684,0,0,1,3.857,4.094,8.836,8.836,0,0,1,.473,2.886,8.227,8.227,0,0,1-.587,3.191,6.843,6.843,0,0,1-4.024,3.89,8.416,8.416,0,0,1-2.966.518,7.711,7.711,0,0,1-2.931-.541,6.518,6.518,0,0,1-2.289-1.544,7.042,7.042,0,0,1-1.488-2.4,8.713,8.713,0,0,1-.53-3.112m7.757,6.517a4.579,4.579,0,0,0,1.94-.406,4.472,4.472,0,0,0,1.51-1.127,5.184,5.184,0,0,0,.982-1.715,6.49,6.49,0,0,0,.349-2.164,12.7,12.7,0,0,0-.337-3.011,7.488,7.488,0,0,0-1.026-2.413,5.031,5.031,0,0,0-1.735-1.612,4.942,4.942,0,0,0-2.448-.586,4.6,4.6,0,0,0-1.77.349,4.372,4.372,0,0,0-1.488,1.016,4.929,4.929,0,0,0-1.026,1.634,6.048,6.048,0,0,0-.383,2.233,12.69,12.69,0,0,0,.36,3.1,8.1,8.1,0,0,0,1.05,2.481,5.038,5.038,0,0,0,1.7,1.634,4.554,4.554,0,0,0,2.322.587" transform="translate(-283.795 -353.746)" fill="#fff"/><path d="M478.873,396.559a1.926,1.926,0,0,1-.338.046.662.662,0,0,1-.428-.113.783.783,0,0,1-.2-.249,4.58,4.58,0,0,0-1.4-1.872,3.713,3.713,0,0,0-2.21-.586,3.56,3.56,0,0,0-1.026.146,2.569,2.569,0,0,0-.845.43,2.1,2.1,0,0,0-.574.688,1.886,1.886,0,0,0-.215.9,2.085,2.085,0,0,0,.891,1.735,11.608,11.608,0,0,0,2.627,1.376,9.206,9.206,0,0,1,3.19,1.9,3.549,3.549,0,0,1,1.027,2.582,5.12,5.12,0,0,1-.283,1.725,3.689,3.689,0,0,1-.878,1.4,4.11,4.11,0,0,1-1.545.936,6.808,6.808,0,0,1-2.277.338,10.187,10.187,0,0,1-2.537-.293,7.2,7.2,0,0,1-1.929-.767q-.068-.946-.2-1.827c-.091-.585-.2-1.173-.316-1.758a.96.96,0,0,1,.384-.069.63.63,0,0,1,.417.125,1.06,1.06,0,0,1,.259.395,5.444,5.444,0,0,0,1.454,2.391,3.7,3.7,0,0,0,2.491.766,3.586,3.586,0,0,0,1.264-.2,2.5,2.5,0,0,0,.9-.563,2.4,2.4,0,0,0,.542-.812,2.584,2.584,0,0,0,.181-.971,2.294,2.294,0,0,0-.8-1.848,7.539,7.539,0,0,0-2.289-1.218,18.034,18.034,0,0,1-1.759-.755,5.84,5.84,0,0,1-1.353-.914,3.6,3.6,0,0,1-.868-1.207,4.352,4.352,0,0,1,0-3.2,3.667,3.667,0,0,1,.879-1.275,4.264,4.264,0,0,1,1.388-.856,5,5,0,0,1,1.826-.317,9.864,9.864,0,0,1,2.029.2,14.188,14.188,0,0,1,2.188.677c.03.451.07.936.124,1.454s.124,1,.214,1.454" transform="translate(-290.159 -353.752)" fill="#fff"/><path d="M485.25,400.342a7.648,7.648,0,0,1,.564-2.931A7.822,7.822,0,0,1,487.347,395a7.365,7.365,0,0,1,2.256-1.646,6.229,6.229,0,0,1,2.7-.608,8.764,8.764,0,0,1,3.428.619,6.687,6.687,0,0,1,3.856,4.094,8.8,8.8,0,0,1,.473,2.886,8.255,8.255,0,0,1-.585,3.191,6.851,6.851,0,0,1-4.026,3.89,8.4,8.4,0,0,1-2.965.518,7.705,7.705,0,0,1-2.931-.541,6.5,6.5,0,0,1-2.289-1.544,7.046,7.046,0,0,1-1.489-2.4,8.747,8.747,0,0,1-.529-3.112m7.757,6.517a4.584,4.584,0,0,0,1.94-.406,4.5,4.5,0,0,0,1.51-1.127,5.239,5.239,0,0,0,.982-1.715,6.489,6.489,0,0,0,.349-2.164,12.7,12.7,0,0,0-.339-3.011,7.486,7.486,0,0,0-1.025-2.413,5.049,5.049,0,0,0-1.737-1.612,4.936,4.936,0,0,0-2.446-.586,4.6,4.6,0,0,0-1.77.349,4.394,4.394,0,0,0-1.489,1.016,4.926,4.926,0,0,0-1.025,1.634,6.048,6.048,0,0,0-.384,2.233,12.69,12.69,0,0,0,.361,3.1,8.1,8.1,0,0,0,1.048,2.481,5.042,5.042,0,0,0,1.7,1.634,4.546,4.546,0,0,0,2.322.587" transform="translate(-293.74 -353.746)" fill="#fff"/><path d="M518.731,404.131v-9.426a.735.735,0,0,0-.362-.7,3.635,3.635,0,0,0-1.217-.316c-.166-.015-.249-.143-.249-.383a1.924,1.924,0,0,1,.045-.361c.377.03.759.056,1.151.078s.759.034,1.1.034q.495,0,1.037-.034c.362-.022.714-.048,1.06-.078a1.932,1.932,0,0,1,.046.361c0,.24-.076.368-.225.383a2.571,2.571,0,0,0-1.05.316.752.752,0,0,0-.281.654v13.281a.515.515,0,0,1-.159.034,1.8,1.8,0,0,1-.18.011.578.578,0,0,1-.293-.078,1.194,1.194,0,0,1-.316-.327l-9.155-12.064v10.621a.664.664,0,0,0,.315.631,4.245,4.245,0,0,0,1.218.339c.149.03.225.15.225.361a1.923,1.923,0,0,1-.046.36q-.564-.045-1.138-.078c-.385-.023-.741-.034-1.072-.034-.3,0-.653.011-1.06.034s-.774.048-1.1.078a1.807,1.807,0,0,1-.046-.36c0-.211.082-.331.248-.361a3.507,3.507,0,0,0,1.093-.339.692.692,0,0,0,.283-.631V394.548a.647.647,0,0,0-.26-.553,2.615,2.615,0,0,0-1.07-.3c-.166-.029-.248-.158-.248-.383a.856.856,0,0,1,.021-.2l.022-.158q.452.045.858.067c.24.015.5.026.766.034s.511.011.723.011a5.194,5.194,0,0,1,.868.046.577.577,0,0,1,.349.225Z" transform="translate(-298.65 -353.792)" fill="#fff"/><path d="M527.781,400.342a7.678,7.678,0,0,1,.563-2.931A7.868,7.868,0,0,1,529.879,395a7.371,7.371,0,0,1,2.255-1.646,6.24,6.24,0,0,1,2.706-.608,8.756,8.756,0,0,1,3.427.619,6.684,6.684,0,0,1,3.857,4.094,8.836,8.836,0,0,1,.473,2.886,8.227,8.227,0,0,1-.587,3.191,6.843,6.843,0,0,1-4.024,3.89,8.416,8.416,0,0,1-2.966.518,7.711,7.711,0,0,1-2.931-.541,6.518,6.518,0,0,1-2.289-1.544,7.044,7.044,0,0,1-1.488-2.4,8.713,8.713,0,0,1-.53-3.112m7.757,6.517a4.579,4.579,0,0,0,1.94-.406,4.473,4.473,0,0,0,1.51-1.127,5.182,5.182,0,0,0,.981-1.715,6.487,6.487,0,0,0,.349-2.164,12.7,12.7,0,0,0-.338-3.011,7.488,7.488,0,0,0-1.026-2.413,5.031,5.031,0,0,0-1.735-1.612,4.942,4.942,0,0,0-2.448-.586,4.6,4.6,0,0,0-1.77.349,4.372,4.372,0,0,0-1.488,1.016,4.929,4.929,0,0,0-1.026,1.634,6.05,6.05,0,0,0-.383,2.233,12.689,12.689,0,0,0,.36,3.1,8.1,8.1,0,0,0,1.05,2.481,5.038,5.038,0,0,0,1.7,1.634,4.554,4.554,0,0,0,2.322.587" transform="translate(-303.349 -353.746)" fill="#fff"/></g><g transform="translate(315.521 181.13)"><path d="M420.434,203.894c-.023-.05-.028-.08-.046-.1-.073-.061-.149-.119-.224-.176a37.287,37.287,0,0,0-4.925-3.1,41.672,41.672,0,0,0-18.455-4.686c-1.072-.031-2.145-.009-3.218.04q-2.28.106-4.539.412a43.107,43.107,0,0,0-7.564,1.733,40.01,40.01,0,0,0-13.656,7.581,37.18,37.18,0,0,0-8.807,10.9,37.562,37.562,0,0,0-4.4,17.519c-.012,1.059.049,2.116.121,3.174a35.5,35.5,0,0,0,.535,4.156,37.232,37.232,0,0,0,12.488,21.529,39.959,39.959,0,0,0,12.95,7.371,45.517,45.517,0,0,0,25.079,1.29,39.3,39.3,0,0,0,14.3-6.552.838.838,0,0,0,.4-.766q-.02-9.8-.01-19.605c0-.614.06-.537-.549-.537q-13,0-26,0-1.08,0-2.16,0c-.514,0-.472-.052-.473.492,0,.923,0,1.848,0,2.771,0,.618-.067.55.536.55l24.13,0c.563,0,.5-.054.505.5q0,7.052.009,14.1a.758.758,0,0,1-.4.749,38.351,38.351,0,0,1-12.424,5.033,37.583,37.583,0,0,1-6.9.817,42.8,42.8,0,0,1-9.153-.752,38.466,38.466,0,0,1-7.466-2.256,35.561,35.561,0,0,1-10.517-6.721,33.944,33.944,0,0,1-10.926-23.59,34.467,34.467,0,0,1,.457-7.3,33.89,33.89,0,0,1,11.348-20.088,35.794,35.794,0,0,1,9.371-5.826,39.021,39.021,0,0,1,12.078-2.978,37.925,37.925,0,0,1,4.964-.137,42.82,42.82,0,0,1,5.14.513,37.594,37.594,0,0,1,15.561,6.415c.365.259.3.249.585-.048.4-.423.8-.851,1.2-1.278C419.728,204.661,420.085,204.274,420.434,203.894Zm19.142,13.657a.449.449,0,0,0-.066-.289q-.711-1.844-1.575-3.621a48.4,48.4,0,0,0-16.309-18.812,48.85,48.85,0,0,0-24.6-8.361,44.02,44.02,0,0,0-4.805-.049c-1.4.07-2.79.17-4.179.334a47.443,47.443,0,0,0-5.72,1.043A48.734,48.734,0,0,0,356.77,203.6a47.53,47.53,0,0,0-11.3,29.344,47.372,47.372,0,0,0,5.775,24.192,48.038,48.038,0,0,0,11.444,13.925A48.9,48.9,0,0,0,396.9,282.324c1.587-.1,3.164-.258,4.734-.5a47.863,47.863,0,0,0,7.749-1.848A48.776,48.776,0,0,0,431.036,265.6a47.732,47.732,0,0,0,7.616-11.993c.313-.708.613-1.421.882-2.146.086-.233.076-.246-.173-.272-.5-.054-.992-.142-1.483-.244-.361-.075-.361-.07-.495.259a48.018,48.018,0,0,1-2.324,4.935,46.526,46.526,0,0,1-21.612,20.03,46.64,46.64,0,0,1-16.787,4.094,45.773,45.773,0,0,1-5.7-.039,48.756,48.756,0,0,1-5.85-.75,46.481,46.481,0,0,1-32.537-24.306,45.086,45.086,0,0,1-3.936-10.883,45.727,45.727,0,0,1-1.074-9.123,46.4,46.4,0,0,1,.224-5.288,44.026,44.026,0,0,1,.866-5.423,45.212,45.212,0,0,1,4.588-12.062,46.51,46.51,0,0,1,23.245-20.522,46.934,46.934,0,0,1,15.761-3.368,46.032,46.032,0,0,1,6.147.163,48.023,48.023,0,0,1,5.985.941,46.563,46.563,0,0,1,25.589,15.586A45.491,45.491,0,0,1,437.1,216.9q.173.413.341.828c.045.109.1.187.238.159C438.311,217.775,438.948,217.663,439.576,217.551Zm6.221,33.268c-.162-.069-.255.017-.361.024-.355.023-.522.214-.642.557a49.592,49.592,0,0,1-2.982,6.823A52.351,52.351,0,0,1,434,269.271a53.488,53.488,0,0,1-6.3,5.838,55.65,55.65,0,0,1-31.664,11.75c-1.981.085-3.964.077-5.947-.034a56.486,56.486,0,0,1-5.746-.616,55.3,55.3,0,0,1-19.095-6.826,53.875,53.875,0,0,1-9.511-7.037,52.976,52.976,0,0,1-9.168-11.132,51.336,51.336,0,0,1-4.635-9.635,50.55,50.55,0,0,1-2.4-9.54,48.775,48.775,0,0,1-.529-5.47,51.414,51.414,0,0,1,1.251-13.628,50.961,50.961,0,0,1,4.874-12.871,52.743,52.743,0,0,1,8.518-11.584,53.337,53.337,0,0,1,5.356-4.822,54.531,54.531,0,0,1,15.7-8.63,55.465,55.465,0,0,1,11.383-2.7c1.887-.243,3.781-.389,5.68-.448a52.922,52.922,0,0,1,5.416.118c1.72.122,3.431.313,5.134.582A54.882,54.882,0,0,1,431.5,196.972a53,53,0,0,1,5.8,6.5,51.846,51.846,0,0,1,6.2,10.6q.741,1.7,1.355,3.448c.044.124.052.3.2.336a2.251,2.251,0,0,0,.757.14c-.04-.129-.065-.218-.1-.307a52.383,52.383,0,0,0-2.383-5.8,53.079,53.079,0,0,0-6.907-10.73,54.157,54.157,0,0,0-8.655-8.365,55.5,55.5,0,0,0-17.31-9.038,57.049,57.049,0,0,0-23.133-2.3c-1.863.2-3.714.474-5.548.855a55.758,55.758,0,0,0-16,5.953,54.653,54.653,0,0,0-15.542,12.926,52.473,52.473,0,0,0-7.549,12.14,51.676,51.676,0,0,0,.337,42.888,53.152,53.152,0,0,0,8.784,13.218,54,54,0,0,0,6.314,5.943,56.39,56.39,0,0,0,32.171,12.2c1.6.079,3.2.119,4.806.05,1.56-.067,3.116-.166,4.669-.334a53.747,53.747,0,0,0,6.138-1.025,55.787,55.787,0,0,0,15.854-6.224,54.573,54.573,0,0,0,14.72-12.472,52.522,52.522,0,0,0,8.433-14.291C445.229,252.474,445.538,251.662,445.8,250.819Zm-42.876-26.382h5.459q2.913,0,5.826,0c.352,0,.356-.005.357-.361q0-1.508,0-3.015c0-.4,0-.4-.4-.4H396.319q-2.322,0-4.644,0c-.4,0-.4,0-.4.406q0,1.466,0,2.933c0,.438,0,.438.444.44h11.2Z" transform="translate(-338.196 -181.13)" fill="#fff"/><path d="M425.222,208.183c-.35.379-.707.767-1.067,1.153-.4.427-.8.855-1.2,1.278-.284.3-.22.307-.585.048a37.595,37.595,0,0,0-15.561-6.415,42.829,42.829,0,0,0-5.14-.513,37.925,37.925,0,0,0-4.964.137,39.022,39.022,0,0,0-12.078,2.978,35.793,35.793,0,0,0-9.371,5.826,33.89,33.89,0,0,0-11.348,20.088,34.469,34.469,0,0,0-.457,7.3,33.944,33.944,0,0,0,10.926,23.589,35.561,35.561,0,0,0,10.517,6.721,38.468,38.468,0,0,0,7.466,2.256,42.807,42.807,0,0,0,9.153.752,37.583,37.583,0,0,0,6.9-.817,38.351,38.351,0,0,0,12.424-5.033.758.758,0,0,0,.4-.749q-.017-7.051-.009-14.1c0-.552.057-.5-.505-.5l-24.13,0c-.6,0-.535.067-.536-.55,0-.923,0-1.848,0-2.771,0-.543-.041-.491.473-.492q1.08,0,2.16,0,13,0,26,0c.608,0,.549-.077.549.537q0,9.8.01,19.605a.838.838,0,0,1-.4.766,39.3,39.3,0,0,1-14.3,6.552,44.518,44.518,0,0,1-5.411.916,46.342,46.342,0,0,1-19.667-2.206,39.958,39.958,0,0,1-12.95-7.371,37.232,37.232,0,0,1-12.488-21.529,35.5,35.5,0,0,1-.535-4.156c-.072-1.057-.132-2.115-.121-3.174a37.562,37.562,0,0,1,4.4-17.519,37.18,37.18,0,0,1,8.807-10.9,40.01,40.01,0,0,1,13.656-7.581,43.109,43.109,0,0,1,7.564-1.733q2.261-.309,4.539-.412c1.073-.05,2.146-.071,3.218-.04a41.672,41.672,0,0,1,18.455,4.686,37.284,37.284,0,0,1,4.925,3.1c.076.057.152.115.224.176C425.195,208.1,425.2,208.133,425.222,208.183Z" transform="translate(-342.984 -185.419)" fill="#fff"/><path d="M441.692,219.082c-.628.112-1.266.224-1.9.341-.142.027-.194-.05-.238-.159q-.168-.415-.341-.828a45.491,45.491,0,0,0-7.127-11.72A46.563,46.563,0,0,0,406.5,191.13a48.023,48.023,0,0,0-5.985-.941,46.034,46.034,0,0,0-6.147-.163,46.934,46.934,0,0,0-15.761,3.368,46.51,46.51,0,0,0-23.245,20.522,45.212,45.212,0,0,0-4.588,12.062,44.026,44.026,0,0,0-.866,5.423,46.4,46.4,0,0,0-.224,5.288,45.724,45.724,0,0,0,1.074,9.123,45.084,45.084,0,0,0,3.936,10.883,45.77,45.77,0,0,0,6.4,9.361A46.536,46.536,0,0,0,387.227,281a48.756,48.756,0,0,0,5.85.75,45.773,45.773,0,0,0,5.7.039,46.627,46.627,0,0,0,29.19-12.325,46.023,46.023,0,0,0,9.209-11.8,48.016,48.016,0,0,0,2.324-4.935c.134-.329.134-.334.495-.259.492.1.984.19,1.483.244.249.026.259.039.173.272-.269.725-.569,1.439-.882,2.146a47.732,47.732,0,0,1-7.616,11.993A48.777,48.777,0,0,1,411.5,281.512a47.86,47.86,0,0,1-7.749,1.848c-1.571.238-3.147.4-4.734.5a48.038,48.038,0,0,1-5.173.032A48.743,48.743,0,0,1,364.8,272.594a48.038,48.038,0,0,1-11.444-13.925,47.513,47.513,0,0,1-1.694-42.059,47.67,47.67,0,0,1,7.223-11.477,48.734,48.734,0,0,1,25.553-15.806,47.44,47.44,0,0,1,5.72-1.043c1.389-.164,2.782-.263,4.179-.334a44.024,44.024,0,0,1,4.805.049,48.85,48.85,0,0,1,24.6,8.361,48.4,48.4,0,0,1,16.309,18.812q.866,1.776,1.575,3.621A.449.449,0,0,1,441.692,219.082Z" transform="translate(-340.311 -182.661)" fill="#fff"/><path d="M445.8,250.819c-.259.844-.568,1.655-.886,2.461a52.522,52.522,0,0,1-8.433,14.291,54.573,54.573,0,0,1-14.72,12.472,55.787,55.787,0,0,1-15.854,6.224,53.747,53.747,0,0,1-6.138,1.025c-1.553.167-3.109.266-4.669.334-1.6.07-3.206.029-4.806-.05a56.047,56.047,0,0,1-32.171-12.2,54,54,0,0,1-6.314-5.943,53.152,53.152,0,0,1-8.784-13.218,51.692,51.692,0,0,1-.337-42.888,52.473,52.473,0,0,1,7.549-12.14,54.653,54.653,0,0,1,15.542-12.926,55.758,55.758,0,0,1,16-5.953c1.834-.382,3.685-.654,5.548-.855a56.33,56.33,0,0,1,40.442,11.339,54.157,54.157,0,0,1,8.655,8.365,53.079,53.079,0,0,1,6.907,10.73,52.383,52.383,0,0,1,2.383,5.8c.03.089.056.179.1.307a2.251,2.251,0,0,1-.757-.14c-.148-.035-.156-.212-.2-.336q-.618-1.747-1.355-3.448a51.846,51.846,0,0,0-6.2-10.6,53,53,0,0,0-5.8-6.5,54.99,54.99,0,0,0-29.174-14.384c-1.7-.269-3.414-.46-5.134-.582a52.922,52.922,0,0,0-5.416-.118c-1.9.06-3.793.205-5.68.448a55.465,55.465,0,0,0-11.383,2.7,54.531,54.531,0,0,0-15.7,8.63,53.337,53.337,0,0,0-5.356,4.822,52.743,52.743,0,0,0-8.518,11.584,50.961,50.961,0,0,0-4.874,12.871,51.414,51.414,0,0,0-1.251,13.628,48.775,48.775,0,0,0,.529,5.47,50.55,50.55,0,0,0,2.4,9.54,51.336,51.336,0,0,0,4.635,9.635,52.976,52.976,0,0,0,9.168,11.132,53.875,53.875,0,0,0,9.511,7.037,55.3,55.3,0,0,0,19.095,6.826,56.486,56.486,0,0,0,5.746.616c1.983.111,3.966.119,5.947.034a55.268,55.268,0,0,0,31.664-11.75,53.488,53.488,0,0,0,6.3-5.838,52.351,52.351,0,0,0,7.808-11.049,49.592,49.592,0,0,0,2.982-6.823c.12-.344.287-.534.642-.557C445.542,250.836,445.636,250.75,445.8,250.819Z" transform="translate(-338.196 -181.13)" fill="#fff"/><path d="M418.415,235.975h-11.2c-.442,0-.443,0-.444-.44q0-1.466,0-2.933c0-.4,0-.406.4-.406q2.322,0,4.644,0h17.842c.4,0,.4,0,.4.4q0,1.507,0,3.015c0,.355,0,.36-.357.361q-2.912,0-5.826,0Z" transform="translate(-353.689 -192.668)" fill="#fff"/></g></g></svg>