<svg xmlns="http://www.w3.org/2000/svg" width="268.865" height="251.703" viewBox="0 0 268.865 251.703"><g transform="translate(-208.5 -129.5)"><path d="M381.815,129.5H244.522A20.022,20.022,0,0,0,224.5,149.522v74.367h5.721V149.522a14.329,14.329,0,0,1,14.3-14.3H381.815a14.325,14.325,0,0,1,14.3,14.3V241.05a14.325,14.325,0,0,1-14.3,14.3H334.866l-42.561,42.555a2.705,2.705,0,0,1-1.979.852,3.023,3.023,0,0,1-2.031-.806,2.719,2.719,0,0,1-.869-2.065V255.352H261.684v5.721h20.022v34.815a8.443,8.443,0,0,0,2.689,6.247,8.74,8.74,0,0,0,5.932,2.345,8.483,8.483,0,0,0,6.03-2.523l40.879-40.885h44.58a20.018,20.018,0,0,0,20.022-20.022V149.522A20.018,20.018,0,0,0,381.815,129.5Z" transform="translate(75.529 0)" fill="#e2bb8c"/><path d="M313.749,196.683v-9.2c0-5.034-2.62-9.33-6.258-12.74C302,169.608,294,165.93,286.079,163.379c-7.934-2.528-15.7-3.867-20.954-3.879-6.985.029-18.529,2.374-28.8,6.819a47.615,47.615,0,0,0-13.563,8.426c-3.638,3.409-6.258,7.706-6.258,12.74v9.2h5.72v-9.2c0-2.946,1.5-5.778,4.456-8.575,4.393-4.17,11.813-7.723,19.238-10.08,7.4-2.38,14.9-3.621,19.21-3.61,5.766-.029,17.1,2.214,26.52,6.344a42.26,42.26,0,0,1,11.927,7.345c2.952,2.8,4.456,5.629,4.456,8.575v9.2Z" transform="translate(37.764 141.616)" fill="#e2bb8c"/><path d="M246.242,147.5A25.73,25.73,0,0,0,220.5,173.139v5.955a25.743,25.743,0,0,0,51.485,0v-5.955A25.73,25.73,0,0,0,246.242,147.5Zm20.022,31.595a19.757,19.757,0,0,1-5.881,14.078,20.039,20.039,0,0,1-28.282,0,19.756,19.756,0,0,1-5.881-14.078v-5.955a19.767,19.767,0,0,1,5.881-14.078,20.039,20.039,0,0,1,28.282,0,19.767,19.767,0,0,1,5.881,14.078Z" transform="translate(56.646 84.97)" fill="#e2bb8c"/><path d="M307.453,139.468l-4.276-3.8-43.749,49.217-20.737-20.737-4.045,4.045,25.027,25.027Z" transform="translate(123.425 29.115)" fill="#e2bb8c"/><path d="M460.2,290.234V213.007h-5.721v77.227H370.351L358.91,301.675H332.676l-11.441-11.441H231.382V155.8a8.6,8.6,0,0,1,8.581-8.581h51.485V141.5H239.963a14.3,14.3,0,0,0-14.3,14.3V290.234H208.5v8.581a25.744,25.744,0,0,0,25.742,25.742h217.38a25.744,25.744,0,0,0,25.742-25.742v-8.581H460.2Zm-8.581,28.6H234.242a20.048,20.048,0,0,1-20.022-20.022v-2.86H318.866L330.307,307.4h30.971l11.441-11.441h98.925v2.86A20.048,20.048,0,0,1,451.623,318.837Z" transform="translate(0 56.646)" fill="#e2bb8c"/></g></svg>