<svg xmlns="http://www.w3.org/2000/svg" width="28.421" height="28.421" viewBox="0 0 28.421 28.421"><path d="M624.9,48.735h9.322a9.574,9.574,0,0,1,9.55,9.549v9.322a9.574,9.574,0,0,1-9.55,9.55H624.9a9.574,9.574,0,0,1-9.549-9.55V58.284a9.574,9.574,0,0,1,9.549-9.549Zm9.322,2.5H624.9a7.072,7.072,0,0,0-7.048,7.048v9.322a7.072,7.072,0,0,0,7.048,7.048h9.322a7.072,7.072,0,0,0,7.048-7.048V58.284a7.072,7.072,0,0,0-7.048-7.048Z" transform="translate(-615.355 -48.735)" fill="#fff"/><path d="M648.605,73.654a1.417,1.417,0,0,0-.04-.189c-.008-.029-.017-.058-.026-.086a1.615,1.615,0,0,0-1.529-1.1h.111a49.72,49.72,0,0,0-13.328,0h.11a1.615,1.615,0,0,0-1.529,1.1c-.009.028-.018.057-.027.086a1.553,1.553,0,0,0-.04.189,27.667,27.667,0,0,0,0,7.994,1.6,1.6,0,0,0,.039.188c.009.03.017.058.027.087a1.614,1.614,0,0,0,1.529,1.1h-.11a49.641,49.641,0,0,0,13.328,0h-.111a1.614,1.614,0,0,0,1.529-1.1c.009-.029.018-.057.026-.087a1.406,1.406,0,0,0,.04-.188,27.667,27.667,0,0,0,0-7.994Zm-6.2,4.328-3.408,2.476a.41.41,0,0,1-.241.078.417.417,0,0,1-.186-.045.411.411,0,0,1-.224-.366V75.176a.41.41,0,0,1,.651-.332l3.408,2.474a.41.41,0,0,1,0,.664Z" transform="translate(-625.964 -63.44)" fill="#fff"/></svg>